<svg xmlns="http://www.w3.org/2000/svg" xmlns:xlink="http://www.w3.org/1999/xlink" width="500" zoomAndPan="magnify" viewBox="0 0 375 374.999991" height="500" preserveAspectRatio="xMidYMid meet" version="1.0"><rect x="-37.5" width="450" fill="#ffffff" y="-37.499999" height="449.999989" fill-opacity="1"/><rect x="-37.5" width="450" fill="#ffffff" y="-37.499999" height="449.999989" fill-opacity="1"/><rect x="-37.5" width="450" fill="#1d1d1d" y="-37.499999" height="449.999989" fill-opacity="1"/><path fill="#17cab1" d="M 232.46875 239.90625 C 235.636719 239.230469 229.613281 234.496094 227.890625 235.429688 C 229.410156 236.835938 230.644531 238.859375 232.46875 239.90625 " fill-opacity="1" fill-rule="nonzero"/><path fill="#17cab1" d="M 254.71875 254.078125 C 251.519531 255.042969 258.996094 259.746094 260.242188 261.253906 C 261.234375 259.289062 257.171875 254.8125 254.71875 254.078125 " fill-opacity="1" fill-rule="nonzero"/><path fill="#17cab1" d="M 248.335938 249.917969 C 245.265625 247.882812 242.265625 243.507812 238.621094 242.988281 C 238.191406 245.183594 246.3125 252.371094 248.335938 249.917969 " fill-opacity="1" fill-rule="nonzero"/><path fill="#17cab1" d="M 204.316406 217.007812 C 203.785156 213.160156 195.910156 209.546875 192.984375 205.988281 C 190.230469 208.871094 201.519531 214.308594 204.316406 217.007812 " fill-opacity="1" fill-rule="nonzero"/><path fill="#17cab1" d="M 241.449219 250.894531 C 242.421875 251.410156 243.558594 251.625 244.074219 251.152344 C 240.617188 246.433594 234.820312 243.851562 231.089844 240.132812 C 223.585938 237.851562 238.878906 247.996094 241.449219 250.894531 " fill-opacity="1" fill-rule="nonzero"/><path fill="#17cab1" d="M 220.644531 231.640625 C 231.546875 236.664062 210.386719 219.746094 206.914062 218.542969 C 208.148438 223.191406 218.421875 225.628906 220.644531 231.640625 " fill-opacity="1" fill-rule="nonzero"/><path fill="#17cab1" d="M 186.699219 206.804688 C 195.40625 215.128906 208.566406 228.296875 218.277344 231.097656 C 208.335938 223.621094 196.84375 210.792969 186.699219 206.804688 " fill-opacity="1" fill-rule="nonzero"/><path fill="#17cab1" d="M 267.859375 265.042969 C 274.074219 265.945312 284.933594 281.398438 287.859375 275.875 C 279.425781 271.355469 269.828125 260.953125 261.019531 260.566406 C 264.648438 264.710938 275.335938 277.738281 280.703125 275.285156 C 278.089844 272.789062 264.074219 265.085938 267.859375 265.042969 " fill-opacity="1" fill-rule="nonzero"/><path fill="#17cab1" d="M 240.917969 278.972656 C 242.953125 278.886719 237.832031 274.253906 237.832031 276.316406 C 238.835938 277.179688 239.871094 278.070312 240.917969 278.972656 " fill-opacity="1" fill-rule="nonzero"/><path fill="#17cab1" d="M 270.617188 309.847656 C 272.453125 308.898438 269.640625 306.347656 268.378906 305.441406 C 264.890625 305.644531 269.554688 308.84375 270.617188 309.847656 " fill-opacity="1" fill-rule="nonzero"/><path fill="#17cab1" d="M 273.167969 302.714844 C 274 303.132812 274.992188 303.449219 275.566406 304.152344 C 275.867188 303.878906 276.183594 303.605469 276.484375 303.320312 C 274.804688 301.511719 269.125 298.640625 273.167969 302.714844 " fill-opacity="1" fill-rule="nonzero"/><path fill="#17cab1" d="M 260.816406 298.253906 C 260.800781 298.570312 261.578125 298.828125 261.476562 298.484375 C 261.777344 299.445312 263.125 300.105469 264.175781 300.4375 C 266.441406 298.757812 259.222656 293.21875 257.773438 295.027344 C 259.023438 295.886719 260.113281 297.078125 260.816406 298.253906 " fill-opacity="1" fill-rule="nonzero"/><path fill="#17cab1" d="M 220.457031 259.332031 C 217.773438 256.976562 215.121094 254.625 212.394531 252.242188 C 208.707031 254.855469 227.804688 267.324219 220.457031 259.332031 " fill-opacity="1" fill-rule="nonzero"/><path fill="#17cab1" d="M 249.597656 290.089844 C 244.804688 290.578125 258.078125 300.894531 260.886719 301.238281 C 258.363281 297.550781 253.730469 292.5 249.597656 290.089844 " fill-opacity="1" fill-rule="nonzero"/><path fill="#17cab1" d="M 186.683594 227.796875 C 186.082031 227.28125 185.0625 226.691406 184.890625 227.207031 C 179.582031 223.289062 192.511719 236.589844 195.851562 237.824219 C 198.808594 235.558594 188.476562 230.609375 186.683594 227.796875 " fill-opacity="1" fill-rule="nonzero"/><path fill="#17cab1" d="M 245.421875 287.335938 C 242.511719 285.183594 230.402344 271.253906 229.742188 276.664062 C 232.292969 278.082031 249.640625 296.089844 245.421875 287.335938 " fill-opacity="1" fill-rule="nonzero"/><path fill="#17cab1" d="M 219.511719 265.65625 C 212.710938 261.699219 204.589844 249.160156 197.804688 249.847656 C 200.644531 252.027344 223.800781 271.710938 219.511719 265.65625 " fill-opacity="1" fill-rule="nonzero"/><path fill="#17cab1" d="M 235.851562 117.984375 C 236.339844 118.945312 233.269531 120.707031 235.105469 120.910156 C 236.210938 120.191406 239.039062 116.605469 235.851562 117.984375 " fill-opacity="1" fill-rule="nonzero"/><path fill="#17cab1" d="M 289.8125 69 C 286.324219 73.648438 290.671875 72.6875 292.480469 69.03125 C 293.472656 66.476562 290.730469 67.265625 289.8125 69 " fill-opacity="1" fill-rule="nonzero"/><path fill="#17cab1" d="M 248.894531 105.011719 C 246.296875 108.039062 238.046875 112.429688 239.625 116.289062 C 241.417969 113.421875 252.738281 106.878906 248.894531 105.011719 " fill-opacity="1" fill-rule="nonzero"/><path fill="#17cab1" d="M 362.09375 17.324219 C 359.523438 18.371094 357.113281 17.023438 354.519531 16.820312 C 355.320312 15.859375 356.398438 14.941406 357.402344 14.296875 C 357.328125 18.226562 366.410156 12.960938 362.09375 17.324219 Z M 300.183594 56.648438 C 300.199219 57.078125 300.15625 57.523438 300.171875 57.953125 C 297.257812 59.703125 294.574219 61.785156 290.628906 60.796875 C 294.175781 57.984375 297.703125 59.589844 300.183594 56.648438 Z M 273.570312 66.015625 C 275.609375 60.894531 284.246094 55.574219 289.125 52.144531 C 286.742188 58.34375 278.476562 61.382812 273.570312 66.015625 Z M 273.269531 75.488281 C 274.332031 73.078125 276.84375 70.765625 279.210938 69.933594 C 277.546875 72.101562 275.480469 74.007812 273.269531 75.488281 Z M 248.320312 87.59375 C 238.105469 96.289062 228.9375 107.238281 220.15625 116.632812 C 232.136719 95.140625 254.878906 82.332031 272.023438 65.644531 C 265.824219 74.265625 256.371094 80.351562 248.320312 87.59375 Z M 261.792969 86.191406 C 249.699219 98.785156 255.265625 90.980469 263.054688 83.492188 C 263.054688 84.339844 262.609375 85.371094 261.792969 86.191406 Z M 227.289062 114.167969 C 228.964844 112.617188 230.414062 110.808594 232.136719 109.289062 C 231.851562 111.640625 229.28125 113.078125 227.289062 114.167969 Z M 239.28125 109.042969 C 238.390625 111.382812 227.402344 114.742188 232.324219 116.578125 C 231.664062 117.292969 231.003906 118.011719 230.34375 118.730469 C 231.964844 113.234375 224.058594 121.195312 226.511719 122.402344 C 226.84375 121.984375 227.472656 121.742188 227.917969 121.355469 C 214.53125 133.863281 202.683594 154.351562 187.804688 162.242188 C 195.265625 153.089844 208.046875 144.855469 211.9375 133.878906 C 225.4375 123.792969 235.105469 108.269531 248.464844 97.394531 C 246.167969 101.542969 242.667969 105.34375 239.28125 109.042969 Z M 185.96875 161.195312 C 182.796875 164.152344 186.828125 158.730469 188.105469 157.882812 C 187.316406 158.859375 186.941406 160.652344 185.96875 161.195312 Z M 173.699219 184.324219 C 173.328125 178.988281 179.109375 177.796875 181.375 173.433594 C 180.027344 177.308594 177.203125 181.28125 173.699219 184.324219 Z M 169.195312 178.859375 C 171.449219 175.242188 176.988281 173.75 178.550781 170.078125 C 181.722656 172.300781 171.835938 178.253906 169.195312 178.859375 Z M 164.074219 186.347656 C 163.730469 184.296875 166.441406 183.203125 167.515625 181.65625 C 169.46875 182.546875 164.847656 185.183594 164.074219 186.347656 Z M 57.519531 309.117188 C 103.875 258.039062 140.917969 200.535156 189.570312 151.640625 C 82.078125 273.664062 76.542969 301.710938 57.519531 309.117188 Z M 150.5 202.113281 C 151.117188 200.824219 152.152344 199.589844 153.398438 198.699219 C 155.480469 197.839844 151.347656 201.699219 150.5 202.113281 Z M 142.539062 212.285156 C 142.667969 208.902344 146.914062 206.476562 149.125 203.992188 C 148.652344 207.28125 144.476562 209.503906 142.539062 212.285156 Z M 141.679688 230.59375 C 143.699219 228.210938 145.4375 220.421875 149.238281 221.539062 C 154.761719 216.5625 160.257812 208.828125 166.886719 206.632812 C 157.53125 213.765625 150.703125 224.566406 141.765625 232.257812 C 142.078125 234.480469 137.332031 236.390625 135.679688 237.882812 C 135.25 235.070312 140.875 233.40625 141.679688 230.59375 Z M 141.347656 229.53125 C 140.542969 230.019531 139.742188 230.449219 138.964844 230.910156 C 139.742188 230.035156 140.085938 228.5 141.347656 229.53125 Z M 141.777344 222.457031 C 142.152344 222.472656 142.523438 222.5 142.867188 222.558594 C 141.160156 223.9375 140.402344 225.988281 138.261719 226.804688 C 138.910156 225.183594 140.257812 223.5625 141.777344 222.457031 Z M 164.949219 204.136719 C 163.988281 205.570312 162.996094 207.035156 162.035156 208.46875 C 158.578125 208.125 163.65625 204.324219 164.949219 204.136719 Z M 168.566406 202.859375 C 179.710938 186.675781 177.960938 201.3125 167.257812 203.320312 C 167.675781 203.003906 168.164062 202.816406 168.566406 202.859375 Z M 195.96875 183.320312 C 190.515625 188.773438 185.136719 194.28125 179.796875 199.832031 C 179.253906 199.289062 178.695312 198.816406 178.105469 198.371094 C 183.257812 193.089844 189.484375 186.503906 195.96875 183.320312 Z M 185.882812 182.960938 C 197.085938 174.710938 207.289062 163.160156 218.578125 154.753906 C 218.390625 160.335938 208.507812 163.921875 204.433594 168.886719 C 195.625 174.726562 189.398438 186.503906 179.8125 189.359375 C 181.765625 187.136719 183.785156 184.984375 185.882812 182.960938 Z M 215.4375 152.15625 C 224.417969 142.730469 234.273438 132.601562 246.011719 127.652344 C 235.035156 134.480469 225.019531 146.734375 215.4375 152.15625 Z M 241.105469 142.273438 C 233.570312 148.730469 236.414062 142.113281 242.164062 140.308594 C 242.238281 140.925781 241.691406 141.65625 241.105469 142.273438 Z M 224.089844 157.222656 C 223.027344 158.082031 221.863281 158.972656 220.800781 159.03125 C 221.734375 153.320312 234.015625 150.535156 224.089844 157.222656 Z M 215.234375 165.816406 C 213.84375 167.4375 204.160156 172.875 208.953125 168.242188 C 210.757812 167.109375 218.464844 160.089844 215.234375 165.816406 Z M 187.875 213.722656 C 218.953125 243.476562 257.070312 267.335938 291.851562 292.199219 C 252.511719 272.445312 219.742188 242.902344 185.695312 215.484375 C 185.695312 215.484375 185.695312 215.484375 185.695312 215.5 C 182.683594 213.019531 179.667969 210.523438 176.65625 208.011719 C 179.582031 205.113281 184.230469 212.601562 187.875 213.722656 Z M 221.261719 237.882812 C 228.996094 244.984375 219.925781 239.804688 216.871094 236.101562 C 218.207031 236.03125 219.914062 236.835938 221.261719 237.882812 Z M 235.136719 258.441406 C 236.328125 259.203125 237.402344 260.132812 238.261719 261.167969 C 237.214844 260.261719 236.183594 259.34375 235.136719 258.441406 Z M 304.085938 314.09375 C 285.222656 309.03125 270.199219 286.949219 253.269531 279.101562 C 246.28125 272.773438 239.152344 266.578125 231.921875 260.523438 C 256.414062 277.78125 279.351562 297.421875 304.085938 314.09375 Z M 204.015625 235.042969 C 209.941406 240.078125 216.457031 244.425781 222.078125 249.847656 C 216.285156 244.425781 208.148438 241.828125 204.015625 235.042969 Z M 276.542969 303.792969 C 281.648438 309.460938 286.757812 315.128906 291.851562 320.738281 C 289.136719 319.617188 276.726562 314.023438 282.855469 311.8125 C 278.765625 309.53125 274.847656 306.707031 271.277344 303.449219 C 263.386719 302.585938 281.375 312.847656 281.949219 317.265625 C 268.464844 311.625 258.148438 302.199219 246.941406 293.175781 C 245.765625 297.710938 256.527344 302.515625 259.914062 305.84375 C 250.042969 303.332031 241.75 289.273438 233.859375 281.957031 C 233.484375 282.902344 233.125 283.878906 232.769531 284.839844 C 231.0625 280.980469 226.5 277.277344 222.523438 276.535156 C 225.808594 280.480469 229.109375 284.410156 232.394531 288.355469 C 225.164062 281.742188 218.390625 274.726562 212.207031 267.394531 C 217.042969 272.144531 223.371094 275.699219 229.082031 276.820312 C 215.0625 264.453125 197.289062 254.136719 185.164062 238.628906 C 189.296875 244.152344 193.398438 249.675781 197.515625 255.183594 C 190.058594 248.726562 182.582031 242.273438 175.121094 235.816406 C 177 236.992188 179.066406 237.609375 180.804688 237.566406 C 176.597656 231.28125 166.597656 230.0625 161.332031 224.023438 C 161.550781 223.777344 161.777344 223.535156 162.007812 223.304688 C 165.523438 225.171875 170.660156 231.097656 174.117188 229.503906 C 171.234375 226.246094 166.8125 224.410156 163.6875 221.539062 C 166.414062 218.097656 168.421875 216.417969 171.621094 216.261719 C 166.972656 199.890625 234.804688 273.289062 228.078125 260.851562 C 236.671875 267.679688 244.933594 275.070312 252.710938 282.789062 C 268.964844 291.355469 284.933594 307.996094 301.03125 319.203125 C 292.625 317.609375 284.101562 310.449219 276.542969 303.792969 Z M 289.152344 323.175781 C 286.542969 321.796875 286.941406 326.390625 286.253906 327.867188 C 283.3125 324.496094 285.0625 320.523438 289.554688 322.402344 C 289.4375 322.671875 289.308594 322.933594 289.152344 323.175781 Z M 233.527344 289.085938 C 233.386719 288.640625 233.6875 288.3125 234.144531 288.382812 C 234.332031 289.777344 236.425781 290.277344 237.230469 292.101562 C 235.9375 291.226562 234.703125 290.207031 233.527344 289.085938 Z M 205.164062 261.582031 C 206.714844 261.828125 209.296875 264.265625 209.453125 265.902344 C 207.863281 264.609375 206.398438 263.148438 205.164062 261.582031 Z M 202.394531 260.652344 C 201.679688 259.503906 200.933594 258.355469 200.214844 257.207031 C 201.921875 258.054688 203.5 259.375 204.632812 260.878906 C 203.902344 260.835938 203.140625 260.722656 202.394531 260.652344 Z M 198.75 259.917969 C 196.109375 257.894531 193.398438 255.816406 191.261719 253.320312 C 193.441406 255.257812 198.492188 256.90625 198.75 259.917969 Z M 164.046875 229.53125 C 167.171875 232.070312 173.328125 233.792969 173.972656 238.070312 C 173.15625 237.351562 165.105469 230.421875 164.046875 229.53125 Z M 174.5625 210.148438 C 182.394531 217.035156 191.019531 223.421875 198.390625 230.75 C 189.640625 224.871094 182.164062 217.421875 174.375 210.335938 C 174.433594 210.277344 174.503906 210.222656 174.5625 210.148438 Z M 166.226562 211.039062 C 169.753906 207.121094 173.355469 203.246094 177.042969 199.460938 C 180.300781 201.125 172.195312 209.648438 170.445312 206.691406 C 170.945312 207.164062 171.449219 207.625 171.949219 208.082031 C 170.574219 209.546875 169.195312 211.011719 167.832031 212.472656 C 167.300781 211.984375 166.769531 211.496094 166.226562 211.039062 Z M 134.476562 230.550781 C 133.816406 231.195312 133.171875 231.871094 132.539062 232.558594 C 132.867188 231.957031 132.683594 230.921875 131.894531 231.152344 C 132.855469 229.058594 137.332031 227.222656 134.476562 230.550781 Z M 129.183594 244.554688 C 129.125 242.1875 131.9375 238.902344 134.519531 238.296875 C 134.273438 240.878906 130.847656 242.515625 129.183594 244.554688 Z M 122.109375 252.472656 C 123.398438 251.050781 124.074219 248.253906 126.011719 247.765625 C 124.921875 249.429688 123.585938 251.023438 122.109375 252.472656 Z M 118.996094 247.625 C 119.210938 247.265625 119.269531 246.863281 119.082031 246.675781 C 120.386719 246.375 122.984375 244.582031 120.832031 247.550781 L 120.847656 247.582031 C 120.171875 248.328125 118.046875 249.5625 119.382812 247.882812 C 119.253906 247.78125 119.125 247.710938 118.996094 247.625 Z M 113.613281 266.261719 C 115.265625 263.550781 116.886719 260.808594 118.550781 258.097656 C 121.851562 258.816406 122.910156 253.289062 126.054688 252.601562 C 122.253906 257.410156 118.0625 261.984375 113.613281 266.261719 Z M 77.632812 317.0625 C 80.058594 313.074219 83.6875 310.609375 86.570312 306.804688 C 83.886719 310.40625 80.859375 313.878906 77.632812 317.0625 Z M 73.242188 321.398438 C 73.457031 319.246094 74.71875 314.96875 77.316406 314.582031 C 75.953125 316.863281 74.605469 319.128906 73.242188 321.398438 Z M 82.496094 270.535156 C 81.246094 274.394531 78.636719 279.445312 74.316406 279.660156 C 77.015625 276.605469 79.753906 273.578125 82.496094 270.535156 Z M 167.429688 163.335938 C 169.613281 162.328125 175.308594 154.742188 176.242188 157.539062 C 169.167969 163.019531 166.210938 172.890625 159.050781 177.667969 C 162.496094 173.105469 165.363281 168.199219 167.429688 163.335938 Z M 197.1875 147.265625 C 195.925781 148.957031 194.03125 153.148438 191.894531 153.25 C 193.542969 151.140625 195.292969 149.144531 197.1875 147.265625 Z M 191.234375 141.941406 C 192.121094 140.722656 193.414062 139.675781 194.648438 138.757812 C 193.757812 142.230469 190.457031 146.101562 186.957031 147.78125 C 187.660156 145.671875 189.253906 143.492188 191.234375 141.941406 Z M 204.878906 139.589844 C 204.175781 140.78125 203.082031 141.898438 201.90625 142.71875 C 201.621094 141.757812 205.40625 137.335938 204.777344 139.5625 Z M 205.96875 126.203125 C 204.289062 129.042969 200.328125 134.039062 197.257812 134.683594 C 199.710938 131.484375 202.738281 128.613281 205.96875 126.203125 Z M 219.914062 121.8125 C 221.390625 120.09375 222.378906 118.601562 224.289062 117.367188 C 220.371094 122.859375 216.699219 127.59375 210.945312 131.355469 C 213.800781 128.027344 216.800781 124.871094 219.914062 121.8125 Z M 210.53125 125.226562 C 211.691406 122.746094 214.617188 119.085938 215.9375 120.40625 C 211.863281 124.941406 210.085938 129.875 205.335938 133.9375 C 207.359375 131.125 209.125 128.242188 210.53125 125.226562 Z M 249.253906 122.042969 C 252.609375 120.636719 253.558594 115.15625 257.761719 116.761719 C 254.230469 118.699219 251.949219 122.417969 248.476562 124.683594 C 248.78125 123.792969 249.007812 122.917969 249.253906 122.042969 Z M 269.109375 121.253906 C 268.636719 121.714844 268.191406 122.113281 267.71875 122.558594 L 267.53125 122.316406 C 263.242188 124.050781 267.804688 119.632812 269.109375 121.253906 Z M 137.128906 195.414062 C 129.125 187.59375 141.648438 204.265625 128.9375 194.195312 C 131.722656 194.710938 129.65625 190.277344 127.273438 187.910156 C 106.125 167.238281 85.953125 145.574219 63.113281 126.691406 C 66.210938 129.058594 69.742188 130.722656 73 131.339844 C 66.945312 127.152344 61.878906 121.167969 59.167969 115.214844 C 105.59375 157.96875 100.359375 154.238281 88.523438 141.039062 C 107.605469 156.40625 123.757812 173.808594 141.863281 190.234375 C 140.285156 191.957031 138.707031 193.691406 137.128906 195.414062 Z M 121.160156 190.25 C 119.796875 187.941406 116.242188 186.589844 115.953125 184.152344 C 127.203125 192.675781 138.910156 208.269531 121.160156 190.25 Z M 112.394531 177.523438 C 100.085938 168.226562 87.117188 155.628906 78.550781 143.863281 C 93.414062 159.230469 110.414062 173.734375 125.4375 189.273438 C 120.359375 186.949219 117.1875 181.023438 112.394531 177.523438 Z M 106.714844 176.289062 C 109.453125 178.253906 112.035156 180.480469 114.375 182.859375 C 111.691406 180.878906 109.109375 178.65625 106.714844 176.289062 Z M 71.707031 139.605469 C 56.382812 125.214844 74.144531 135 75.164062 143.433594 C 74.003906 142.15625 72.855469 140.882812 71.707031 139.605469 Z M 60.101562 127.941406 C 58.808594 124.496094 53.84375 124.039062 51.75 121.296875 C 54.101562 121.226562 63.128906 124.710938 60.101562 127.941406 Z M 52.339844 116.234375 C 59.65625 120.363281 54.90625 121.28125 51.292969 116.289062 C 51.648438 116.261719 51.980469 116.261719 52.339844 116.234375 Z M 48.320312 90.136719 C 49.597656 91.109375 50.703125 92.316406 51.550781 93.59375 C 49.011719 94.554688 49.855469 91.324219 48.320312 90.136719 Z M 47.171875 94.167969 C 44.175781 91.941406 39.972656 89.890625 38.40625 85.988281 C 41.390625 87.164062 47.503906 90.753906 47.171875 94.167969 Z M 52.296875 88.5 C 53.945312 90.394531 57.992188 91.425781 56.441406 94.296875 C 52.914062 90.007812 45.566406 87.023438 44.21875 81.914062 C 46.929688 84.152344 49.613281 86.332031 52.296875 88.5 Z M 99.039062 138.398438 C 98.964844 138.328125 98.910156 138.269531 98.851562 138.199219 C 98.921875 138.285156 99.023438 138.285156 99.039062 138.398438 Z M 103.570312 140.308594 C 103.34375 140.136719 103.140625 139.933594 102.910156 139.746094 C 103.171875 139.675781 103.3125 140.179688 103.570312 140.308594 Z M 107.949219 142.316406 C 109.382812 143.519531 110.675781 144.855469 111.765625 146.261719 C 111.550781 146.347656 111.347656 146.449219 111.117188 146.5625 C 111.421875 147.007812 111.722656 147.453125 112.035156 147.898438 C 109.527344 145.644531 107.015625 143.390625 104.492188 141.140625 C 106.242188 143.261719 112.210938 147.007812 107.949219 142.316406 Z M 141.90625 173.507812 C 144.476562 172.644531 147.472656 178.210938 149.210938 179.933594 C 146.457031 178.113281 143.945312 175.917969 141.90625 173.507812 Z M 120.5 154.410156 C 124.046875 156.589844 127.273438 159.433594 129.683594 162.53125 C 127.03125 159.804688 122.078125 157.667969 120.5 154.410156 Z M 124.375 168.328125 C 121.894531 166.992188 119.613281 164.941406 118.175781 162.773438 C 120.574219 162.300781 122.726562 166.761719 124.375 168.328125 Z M 121.722656 160.980469 C 120.457031 157.09375 115.652344 154.667969 113.027344 151.539062 C 118.363281 154.566406 122.554688 162 127.472656 163.691406 C 130.890625 167.421875 134.847656 169.691406 138.664062 173.160156 C 138.492188 173.292969 138.320312 173.421875 138.132812 173.550781 C 158.9375 194.253906 130.730469 168.757812 121.722656 160.980469 Z M 143.398438 188.554688 C 143.199219 188.773438 142.996094 188.988281 142.796875 189.214844 C 141.234375 186.433594 134.230469 180.75 143.398438 188.554688 Z M 140.601562 183.160156 C 136.570312 179.085938 131.851562 175.601562 127.761719 171.554688 C 134.433594 175.269531 139.8125 181.183594 145.523438 186.230469 C 144.1875 187.667969 142.121094 183.878906 140.601562 183.160156 Z M 149.152344 182.257812 C 148.449219 181.597656 147.746094 180.9375 147.058594 180.277344 C 147.777344 180.894531 148.523438 181.511719 149.253906 182.144531 C 149.226562 182.171875 149.179688 182.214844 149.152344 182.257812 Z M 109.613281 138.628906 C 116.972656 141.929688 130.257812 162.847656 133.183594 158.84375 C 140.273438 164.726562 147.359375 170.59375 154.445312 176.460938 C 154.273438 176.632812 154.117188 176.820312 153.960938 176.992188 C 133.097656 170.078125 106.554688 136.648438 84.175781 120.421875 C 91.894531 127.324219 100.574219 133.535156 109.613281 138.628906 Z M 94.5625 124.425781 C 95.179688 124.941406 97.761719 126.664062 96.328125 127.066406 C 95.222656 126.664062 91.261719 123.304688 94.5625 124.425781 Z M 129.46875 154.941406 C 130.285156 154.96875 130.789062 156.320312 130.472656 156.632812 C 129.269531 155.746094 128.105469 154.796875 127.058594 153.734375 C 127.691406 153.363281 129.136719 154.066406 129.46875 154.941406 Z M 364.488281 11.023438 C 360.070312 7.324219 356.800781 -1.199219 349.566406 3.164062 C 305.234375 37.882812 252.8125 66.75 215.136719 114.125 C 214.964844 109.734375 209.828125 114.710938 208.335938 116.691406 C 191.363281 136.503906 173.484375 155.515625 155.925781 174.839844 C 124.058594 149.171875 95.148438 118.800781 60.859375 96.476562 C 43.027344 71.226562 28.59375 57.898438 0 78.011719 C 45.796875 116.964844 85.609375 162.429688 130.472656 202.703125 C 140.917969 208.441406 146.269531 180.292969 158.523438 180.179688 C 131.964844 208.871094 107.960938 239.890625 82.597656 269.703125 C 95.335938 250.792969 109.796875 232.429688 125.652344 215.097656 C 88.191406 242.058594 61.21875 294.207031 27.933594 329.417969 C 18.121094 338.484375 11.777344 359.832031 32.195312 352.746094 C 50.070312 343.636719 49.496094 321.683594 64.933594 308.898438 C 64.992188 311.296875 67.300781 312.285156 68.980469 313.449219 C 60.230469 320.738281 56.3125 354.910156 71.320312 339.417969 C 69.828125 341.855469 69.125 344.496094 69.554688 346.53125 C 79.410156 337.148438 77.488281 322.746094 87.605469 312.328125 C 83.3125 315.613281 79.46875 319.832031 76.640625 324.292969 C 86.414062 304.207031 101.277344 287.710938 114.648438 271.007812 C 112.195312 272.847656 109.753906 274.683594 107.316406 276.519531 C 116.785156 266.707031 126.285156 256.863281 135.722656 247.035156 C 133.484375 246.863281 130.644531 247.980469 128.261719 249.933594 C 133.15625 245.800781 138.261719 242 143.515625 238.542969 C 141.03125 238.613281 138.175781 239.703125 135.550781 241.511719 C 146.84375 233.476562 156.097656 222.773438 165.121094 212.257812 C 148.175781 242.601562 103.960938 275.183594 91.105469 308.199219 C 111.648438 280.480469 134.015625 253.59375 157.804688 227.851562 C 172.222656 239.761719 312.507812 371.625 299.09375 322.128906 C 303.113281 326.992188 316.613281 332.214844 307.417969 321.613281 C 303.84375 324.109375 314.273438 331.367188 303.457031 322.617188 C 301.589844 315.371094 324.960938 326.246094 312.96875 316.144531 C 314.160156 315.757812 315.308594 315.34375 316.484375 314.984375 C 298.722656 309.863281 282.996094 296.1875 267.992188 285.199219 C 282.539062 290.996094 298.910156 308.929688 312.238281 310.363281 C 330.285156 288.199219 324.289062 299.273438 296.597656 282.34375 C 298.636719 284.667969 300.6875 287.007812 302.796875 289.332031 C 298.019531 287.179688 293.355469 284.367188 289.082031 281.136719 C 288.878906 281.710938 288.679688 282.34375 288.464844 282.902344 C 276.5 276.261719 264.015625 269.015625 255.035156 259.171875 C 256.140625 262.675781 258.59375 266.359375 261.964844 269.503906 C 235.550781 246.503906 206.511719 226.976562 179.683594 204.941406 C 181.003906 202.34375 188.347656 208.039062 182.238281 202.328125 C 208.980469 175.398438 237.246094 149.976562 266.628906 126.546875 C 259.839844 129.746094 253.070312 133.292969 246.398438 137.136719 C 256.585938 125.558594 270.542969 127.066406 281.519531 114.394531 C 278.578125 115.714844 275.621094 116.992188 272.695312 118.296875 C 282.867188 110.191406 293.039062 102.070312 303.242188 93.980469 C 303.285156 95.242188 303.285156 96.546875 303.3125 97.8125 C 317.488281 81.785156 343.84375 79.304688 353.199219 63.507812 C 351.320312 56.691406 343.011719 51.683594 335.464844 56.621094 C 305.925781 79.117188 269.4375 97.898438 245.164062 124.941406 C 230.617188 131.726562 213.429688 150.035156 199.539062 162.746094 C 202.652344 162.085938 206.039062 160.234375 208.894531 157.710938 C 204.632812 161.8125 200.371094 165.917969 196.109375 170.035156 C 196.65625 167.925781 181.320312 185.441406 175.078125 189.648438 C 177.375 185.113281 170.601562 190.222656 170.414062 191.425781 C 165.222656 194.511719 160.558594 200.191406 159.238281 205.472656 C 159.539062 205.355469 159.828125 205.300781 160.113281 205.285156 C 155.625 209.648438 151.863281 218.226562 145.335938 218.957031 C 151.089844 213.003906 161.75 206.664062 160.472656 197.105469 C 154.921875 206.546875 146.972656 215.472656 138.003906 222.316406 C 148.894531 212.171875 155.695312 197.796875 166.785156 188.542969 C 165.363281 190.652344 164.289062 192.847656 163.65625 195.042969 C 166.800781 193.074219 169.441406 189.546875 170.128906 186.417969 C 207.34375 155.875 241.003906 100.78125 283.558594 70.710938 C 275.265625 81.140625 256.800781 91.855469 253.457031 102.761719 C 266.886719 93.003906 280.703125 71.382812 294.703125 67.351562 C 295.40625 65.789062 296.683594 64.238281 298.175781 63.175781 C 298.21875 64.425781 298.304688 65.628906 298.378906 66.835938 C 309.4375 59.863281 312.539062 59.574219 298.980469 51.109375 C 313.011719 39.992188 328.691406 28.15625 345.9375 24.367188 C 337.15625 18.601562 352.636719 13.261719 352.152344 22.933594 C 349.308594 24.984375 344.445312 25.601562 347.53125 29.605469 C 353.296875 23.738281 374.90625 23.605469 364.488281 11.023438 " fill-opacity="1" fill-rule="nonzero"/><path fill="#17cab1" d="M 324.503906 37.996094 C 328.578125 41.371094 335.765625 32.417969 339.683594 29.519531 C 334.488281 28.300781 328.605469 34.511719 324.503906 37.996094 " fill-opacity="1" fill-rule="nonzero"/><path fill="#17cab1" d="M 296.871094 101.054688 C 294.820312 101.941406 292.769531 103.519531 291.191406 105.414062 C 292.996094 107.464844 302.984375 99.503906 296.871094 101.054688 " fill-opacity="1" fill-rule="nonzero"/></svg>