<svg xmlns="http://www.w3.org/2000/svg" xmlns:xlink="http://www.w3.org/1999/xlink" width="500" zoomAndPan="magnify" viewBox="0 0 375 374.999991" height="500" preserveAspectRatio="xMidYMid meet" version="1.0"><defs><clipPath id="ebfbf07f06"><path d="M 22.8125 3.492188 L 352.0625 3.492188 L 352.0625 371.742188 L 22.8125 371.742188 Z M 22.8125 3.492188 " clip-rule="nonzero"/></clipPath></defs><rect x="-37.5" width="450" fill="#ffffff" y="-37.499999" height="449.999989" fill-opacity="1"/><rect x="-37.5" width="450" fill="#ffffff" y="-37.499999" height="449.999989" fill-opacity="1"/><rect x="-37.5" width="450" fill="#1d1d1d" y="-37.499999" height="449.999989" fill-opacity="1"/><g clip-path="url(#ebfbf07f06)"><path fill="#0277bd" d="M 352.015625 3.492188 L 22.855469 3.492188 L 51.902344 332.976562 L 187.4375 371.742188 L 322.972656 332.976562 Z M 352.015625 3.492188 " fill-opacity="1" fill-rule="nonzero"/></g><path fill="#039be5" d="M 187.4375 32.5625 L 187.4375 341.699219 L 295.867188 310.6875 L 320.070312 32.5625 Z M 187.4375 32.5625 " fill-opacity="1" fill-rule="nonzero"/><path fill="#ffffff" d="M 275.535156 81.015625 L 187.4375 81.015625 L 187.4375 119.78125 L 234.875 119.78125 L 231.96875 158.542969 L 187.4375 158.542969 L 187.4375 197.308594 L 230.035156 197.308594 L 227.128906 240.914062 L 187.4375 254.480469 L 187.4375 295.183594 L 263.917969 269.988281 L 270.695312 158.542969 Z M 275.535156 81.015625 " fill-opacity="1" fill-rule="nonzero"/><path fill="#eeeeee" d="M 187.4375 81.015625 L 187.4375 119.78125 L 101.273438 119.78125 L 98.371094 81.015625 Z M 142.902344 158.542969 L 144.839844 197.308594 L 187.4375 197.308594 L 187.4375 158.542969 Z M 146.777344 216.6875 L 108.050781 216.6875 L 110.957031 269.988281 L 187.4375 295.183594 L 187.4375 254.480469 L 147.742188 240.914062 Z M 146.777344 216.6875 " fill-opacity="1" fill-rule="nonzero"/></svg>