<svg xmlns="http://www.w3.org/2000/svg" xmlns:xlink="http://www.w3.org/1999/xlink" width="500" zoomAndPan="magnify" viewBox="0 0 375 374.999991" height="500" preserveAspectRatio="xMidYMid meet" version="1.0"><defs><clipPath id="9b616b18b3"><path d="M 32.503906 42.359375 L 337.753906 42.359375 L 337.753906 325.109375 L 32.503906 325.109375 Z M 32.503906 42.359375 " clip-rule="nonzero"/></clipPath></defs><rect x="-37.5" width="450" fill="#ffffff" y="-37.499999" height="449.999989" fill-opacity="1"/><rect x="-37.5" width="450" fill="#ffffff" y="-37.499999" height="449.999989" fill-opacity="1"/><rect x="-37.5" width="450" fill="#1d1d1d" y="-37.499999" height="449.999989" fill-opacity="1"/><g clip-path="url(#9b616b18b3)"><path fill="#1a4789" d="M 349.015625 296.308594 C 349.015625 323.628906 326.871094 345.769531 299.554688 345.769531 L 72.988281 345.769531 C 45.671875 345.769531 23.527344 323.628906 23.527344 296.308594 L 23.527344 69.742188 C 23.527344 42.425781 45.671875 20.28125 72.988281 20.28125 L 299.554688 20.28125 C 326.871094 20.28125 349.011719 42.425781 349.011719 69.742188 L 349.011719 296.308594 Z M 349.015625 296.308594 " fill-opacity="1" fill-rule="nonzero"/></g><path fill="#1d1d1d" d="M 239.195312 208.316406 L 244.460938 167.503906 L 204.042969 167.503906 L 204.042969 141.449219 C 204.042969 129.632812 207.339844 121.578125 224.28125 121.578125 L 245.875 121.566406 L 245.875 85.070312 C 242.148438 84.570312 229.328125 83.457031 214.390625 83.457031 C 183.230469 83.457031 161.910156 102.480469 161.910156 137.410156 L 161.910156 167.507812 L 126.667969 167.507812 L 126.667969 208.316406 L 161.910156 208.316406 L 161.910156 313.03125 L 204.042969 313.03125 L 204.042969 208.316406 Z M 239.195312 208.316406 " fill-opacity="1" fill-rule="nonzero"/></svg>