<svg xmlns="http://www.w3.org/2000/svg" xmlns:xlink="http://www.w3.org/1999/xlink" width="500" zoomAndPan="magnify" viewBox="0 0 375 374.999991" height="500" preserveAspectRatio="xMidYMid meet" version="1.0"><rect x="-37.5" width="450" fill="#ffffff" y="-37.499999" height="449.999989" fill-opacity="1"/><rect x="-37.5" width="450" fill="#ffffff" y="-37.499999" height="449.999989" fill-opacity="1"/><rect x="-37.5" width="450" fill="#f2f2f2" y="-37.499999" height="449.999989" fill-opacity="1"/><rect x="-37.5" width="450" fill="#ffffff" y="-37.499999" height="449.999989" fill-opacity="1"/><rect x="-37.5" width="450" fill="#ffffff" y="-37.499999" height="449.999989" fill-opacity="1"/><rect x="-37.5" width="450" fill="#f2f2f2" y="-37.499999" height="449.999989" fill-opacity="1"/><rect x="-37.5" width="450" fill="#ffffff" y="-37.499999" height="449.999989" fill-opacity="1"/><rect x="-37.5" width="450" fill="#ffffff" y="-37.499999" height="449.999989" fill-opacity="1"/><rect x="-37.5" width="450" fill="#033e8c" y="-37.499999" height="449.999989" fill-opacity="1"/><path fill="#f2f2f2" d="M 187.464844 -123.410156 C 15.769531 -123.410156 -123.410156 15.769531 -123.410156 187.464844 C -123.410156 359.160156 15.769531 498.339844 187.464844 498.339844 C 359.160156 498.339844 498.339844 359.160156 498.339844 187.464844 C 498.339844 15.769531 359.160156 -123.410156 187.464844 -123.410156 Z M 246.84375 370.695312 C 237.328125 372.527344 233.941406 366.683594 233.941406 361.648438 C 233.941406 355.460938 234.191406 335.191406 234.191406 310.011719 C 234.191406 292.449219 228.191406 280.976562 221.476562 275.164062 C 263.226562 270.5 307.089844 254.582031 307.089844 182.273438 C 307.089844 161.726562 299.847656 144.90625 287.816406 131.757812 C 289.742188 127 296.179688 107.851562 285.949219 81.953125 C 285.949219 81.953125 270.25 76.886719 234.4375 101.257812 C 219.453125 97.09375 203.414062 95.011719 187.496094 94.917969 C 171.546875 95.011719 155.507812 97.09375 140.554688 101.257812 C 104.742188 76.917969 89.011719 81.953125 89.011719 81.953125 C 78.8125 107.882812 85.25 127 87.175781 131.757812 C 75.175781 144.90625 67.871094 161.726562 67.871094 182.273438 C 67.871094 254.398438 111.644531 270.53125 153.269531 275.289062 C 147.921875 279.980469 143.070312 288.28125 141.363281 300.4375 C 130.667969 305.253906 103.527344 313.554688 86.804688 284.800781 C 86.804688 284.800781 76.917969 266.738281 58.109375 265.402344 C 58.109375 265.402344 39.800781 265.152344 56.835938 276.839844 C 56.835938 276.839844 69.113281 282.625 77.632812 304.386719 C 77.632812 304.386719 88.636719 341.007812 140.804688 329.628906 C 140.894531 345.328125 141.050781 357.171875 141.050781 361.648438 C 141.050781 366.621094 137.632812 372.4375 128.242188 370.726562 C 53.726562 345.824219 0.0078125 275.289062 0.0078125 192.128906 C 0.0078125 88.140625 83.945312 3.894531 187.496094 3.894531 C 291.046875 3.894531 374.984375 88.171875 374.984375 192.128906 C 374.984375 275.257812 321.328125 345.761719 246.875 370.695312 Z M 246.84375 370.695312 " fill-opacity="1" fill-rule="nonzero"/></svg>