<svg xmlns="http://www.w3.org/2000/svg" xmlns:xlink="http://www.w3.org/1999/xlink" width="500" zoomAndPan="magnify" viewBox="0 0 375 374.999991" height="500" preserveAspectRatio="xMidYMid meet" version="1.0"><rect x="-37.5" width="450" fill="#ffffff" y="-37.499999" height="449.999989" fill-opacity="1"/><rect x="-37.5" width="450" fill="#ffffff" y="-37.499999" height="449.999989" fill-opacity="1"/><rect x="-37.5" width="450" fill="#1d1d1d" y="-37.499999" height="449.999989" fill-opacity="1"/><path fill="#e65100" d="M 352.25 3.5 L 22.875 3.5 L 51.9375 332.875 L 187.5625 371.625 L 323.1875 332.875 Z M 352.25 3.5 " fill-opacity="1" fill-rule="nonzero"/><path fill="#ff6d00" d="M 187.5625 32.5625 L 187.5625 341.59375 L 296.0625 310.59375 L 320.28125 32.5625 Z M 187.5625 32.5625 " fill-opacity="1" fill-rule="nonzero"/><path fill="#ffffff" d="M 187.5625 197.25 L 187.5625 158.5 L 270.875 158.5 L 264.09375 269.90625 L 187.5625 295.09375 L 187.5625 254.40625 L 227.28125 240.84375 L 230.1875 197.25 Z M 273.78125 119.75 L 276.6875 81 L 187.5625 81 L 187.5625 119.75 Z M 273.78125 119.75 " fill-opacity="1" fill-rule="nonzero"/><path fill="#eeeeee" d="M 187.5625 254.40625 L 187.5625 295.09375 L 111.03125 269.90625 L 107.15625 216.625 L 145.90625 216.625 L 147.84375 240.84375 Z M 140.09375 119.75 L 187.5625 119.75 L 187.5625 81 L 99.40625 81 L 106.1875 197.25 L 187.5625 197.25 L 187.5625 158.5 L 143 158.5 Z M 140.09375 119.75 " fill-opacity="1" fill-rule="nonzero"/></svg>