<svg xmlns="http://www.w3.org/2000/svg" xmlns:xlink="http://www.w3.org/1999/xlink" width="500" zoomAndPan="magnify" viewBox="0 0 375 374.999991" height="500" preserveAspectRatio="xMidYMid meet" version="1.0"><defs><clipPath id="611bd8f9c7"><path d="M 37.5 0 L 365 0 L 365 375 L 37.5 375 Z M 37.5 0 " clip-rule="nonzero"/></clipPath></defs><g clip-path="url(#611bd8f9c7)"><path fill="#1d1d1d" d="M 221.375 1.71875 C 211.65625 10.996094 200.8125 16.90625 191.246094 24.535156 C 180.480469 33.140625 172.105469 43.6875 165.003906 55.207031 C 155.734375 70.242188 151.621094 87.449219 147.585938 104.355469 C 143.097656 123.203125 140.78125 142.503906 141.902344 161.953125 C 142.652344 174.296875 143.472656 186.9375 147.882812 198.460938 C 152.667969 210.800781 160.59375 221.722656 167.84375 232.871094 C 180.480469 252.320312 198.871094 263.839844 218.980469 273.5625 C 237.148438 282.390625 256.136719 288.226562 275.796875 292.339844 C 297.628906 296.902344 319.382812 296.082031 341.0625 291.667969 C 346.597656 290.542969 352.054688 289.199219 357.511719 287.925781 C 360.277344 287.328125 362.820312 288.152344 364.164062 290.621094 C 365.210938 292.5625 364.914062 294.660156 362.96875 296.527344 C 348.988281 310.292969 335.980469 325.105469 320.207031 336.847656 C 294.710938 355.925781 266.679688 369.089844 234.605469 372.753906 C 214.945312 375 195.507812 374.476562 176.070312 371.335938 C 167.996094 370.0625 160.890625 365.5 153.191406 362.730469 C 130.242188 354.355469 111.699219 339.542969 93.382812 323.90625 C 68.636719 302.8125 53.613281 275.957031 44.417969 245.289062 C 38.136719 224.339844 37.539062 202.796875 38.210938 181.179688 C 39.40625 142.804688 53.835938 108.917969 75.21875 78.023438 C 93.085938 52.140625 116.335938 31.417969 144.894531 17.578125 C 163.957031 8.453125 184.21875 2.769531 205.671875 1.644531 C 210.683594 1.421875 215.617188 0 221.375 1.71875 Z M 221.375 1.71875 " fill-opacity="1" fill-rule="nonzero"/></g></svg>