<svg xmlns="http://www.w3.org/2000/svg" xmlns:xlink="http://www.w3.org/1999/xlink" width="500" zoomAndPan="magnify" viewBox="0 0 375 374.999991" height="500" preserveAspectRatio="xMidYMid meet" version="1.0"><defs><clipPath id="1d1606dff9"><path d="M 2.457031 2.457031 L 372.207031 2.457031 L 372.207031 372.207031 L 2.457031 372.207031 Z M 2.457031 2.457031 " clip-rule="nonzero"/></clipPath></defs><rect x="-37.5" width="450" fill="#ffffff" y="-37.499999" height="449.999989" fill-opacity="1"/><rect x="-37.5" width="450" fill="#ffffff" y="-37.499999" height="449.999989" fill-opacity="1"/><rect x="-37.5" width="450" fill="#1d1d1d" y="-37.499999" height="449.999989" fill-opacity="1"/><g clip-path="url(#1d1606dff9)"><path fill="#17cab1" d="M 268.648438 2.425781 L 105.90625 2.425781 C 48.847656 2.425781 2.425781 48.847656 2.425781 105.90625 L 2.425781 268.648438 C 2.425781 325.707031 48.847656 372.128906 105.90625 372.128906 L 268.648438 372.128906 C 325.707031 372.128906 372.128906 325.707031 372.128906 268.648438 L 372.128906 105.90625 C 372.128906 48.847656 325.707031 2.425781 268.648438 2.425781 Z M 347.722656 268.648438 C 347.722656 312.25 312.25 347.722656 268.648438 347.722656 L 105.90625 347.722656 C 62.304688 347.722656 26.832031 312.25 26.832031 268.648438 L 26.832031 105.90625 C 26.832031 62.304688 62.304688 26.832031 105.90625 26.832031 L 268.648438 26.832031 C 312.25 26.832031 347.722656 62.304688 347.722656 105.90625 Z M 347.722656 268.648438 " fill-opacity="1" fill-rule="nonzero"/></g><path fill="#17cab1" d="M 187.277344 93.246094 C 135.425781 93.246094 93.242188 135.425781 93.242188 187.277344 C 93.242188 239.125 135.425781 281.308594 187.277344 281.308594 C 239.125 281.308594 281.308594 239.125 281.308594 187.277344 C 281.308594 135.425781 239.125 93.246094 187.277344 93.246094 Z M 187.277344 256.902344 C 148.882812 256.902344 117.648438 225.667969 117.648438 187.277344 C 117.648438 148.882812 148.882812 117.648438 187.277344 117.648438 C 225.667969 117.648438 256.902344 148.882812 256.902344 187.277344 C 256.902344 225.667969 225.667969 256.902344 187.277344 256.902344 Z M 187.277344 256.902344 " fill-opacity="1" fill-rule="nonzero"/><path fill="#17cab1" d="M 305.65625 85.328125 C 305.65625 85.925781 305.628906 86.523438 305.570312 87.121094 C 305.511719 87.714844 305.421875 88.308594 305.304688 88.894531 C 305.191406 89.480469 305.042969 90.0625 304.871094 90.632812 C 304.695312 91.207031 304.496094 91.769531 304.265625 92.324219 C 304.039062 92.875 303.78125 93.414062 303.5 93.945312 C 303.21875 94.472656 302.910156 94.984375 302.578125 95.480469 C 302.246094 95.980469 301.890625 96.460938 301.507812 96.921875 C 301.128906 97.386719 300.726562 97.828125 300.304688 98.25 C 299.882812 98.675781 299.4375 99.078125 298.976562 99.457031 C 298.511719 99.835938 298.03125 100.191406 297.535156 100.523438 C 297.039062 100.855469 296.523438 101.164062 295.996094 101.445312 C 295.46875 101.726562 294.929688 101.984375 294.375 102.214844 C 293.824219 102.441406 293.261719 102.644531 292.6875 102.816406 C 292.113281 102.992188 291.535156 103.136719 290.949219 103.253906 C 290.359375 103.371094 289.769531 103.457031 289.171875 103.515625 C 288.578125 103.574219 287.980469 103.605469 287.382812 103.605469 C 286.785156 103.605469 286.1875 103.574219 285.589844 103.515625 C 284.996094 103.457031 284.402344 103.371094 283.816406 103.253906 C 283.230469 103.136719 282.648438 102.992188 282.078125 102.816406 C 281.503906 102.644531 280.941406 102.441406 280.386719 102.214844 C 279.835938 101.984375 279.296875 101.726562 278.765625 101.445312 C 278.238281 101.164062 277.726562 100.855469 277.230469 100.523438 C 276.730469 100.191406 276.25 99.835938 275.789062 99.457031 C 275.324219 99.078125 274.882812 98.675781 274.460938 98.25 C 274.035156 97.828125 273.632812 97.386719 273.253906 96.921875 C 272.875 96.460938 272.519531 95.980469 272.1875 95.480469 C 271.855469 94.984375 271.546875 94.472656 271.265625 93.945312 C 270.980469 93.414062 270.726562 92.875 270.496094 92.324219 C 270.269531 91.769531 270.066406 91.207031 269.894531 90.632812 C 269.71875 90.0625 269.574219 89.480469 269.457031 88.894531 C 269.339844 88.308594 269.253906 87.714844 269.195312 87.121094 C 269.136719 86.523438 269.105469 85.925781 269.105469 85.328125 C 269.105469 84.730469 269.136719 84.132812 269.195312 83.539062 C 269.253906 82.941406 269.339844 82.351562 269.457031 81.761719 C 269.574219 81.175781 269.71875 80.597656 269.894531 80.023438 C 270.066406 79.449219 270.269531 78.886719 270.496094 78.335938 C 270.726562 77.78125 270.980469 77.242188 271.265625 76.714844 C 271.546875 76.1875 271.855469 75.671875 272.1875 75.175781 C 272.519531 74.675781 272.875 74.199219 273.253906 73.734375 C 273.632812 73.273438 274.035156 72.828125 274.460938 72.40625 C 274.882812 71.984375 275.324219 71.582031 275.789062 71.203125 C 276.25 70.820312 276.730469 70.464844 277.230469 70.132812 C 277.726562 69.800781 278.238281 69.492188 278.765625 69.210938 C 279.296875 68.929688 279.835938 68.671875 280.386719 68.445312 C 280.941406 68.214844 281.503906 68.015625 282.078125 67.839844 C 282.648438 67.667969 283.230469 67.519531 283.816406 67.402344 C 284.402344 67.289062 284.996094 67.199219 285.589844 67.140625 C 286.1875 67.082031 286.785156 67.054688 287.382812 67.054688 C 287.980469 67.054688 288.578125 67.082031 289.171875 67.140625 C 289.769531 67.199219 290.359375 67.289062 290.949219 67.402344 C 291.535156 67.519531 292.113281 67.667969 292.6875 67.839844 C 293.261719 68.015625 293.824219 68.214844 294.375 68.445312 C 294.929688 68.671875 295.46875 68.929688 295.996094 69.210938 C 296.523438 69.492188 297.039062 69.800781 297.535156 70.132812 C 298.03125 70.464844 298.511719 70.820312 298.976562 71.203125 C 299.4375 71.582031 299.882812 71.984375 300.304688 72.40625 C 300.726562 72.828125 301.128906 73.273438 301.507812 73.734375 C 301.890625 74.199219 302.246094 74.675781 302.578125 75.175781 C 302.910156 75.671875 303.21875 76.1875 303.5 76.714844 C 303.78125 77.242188 304.039062 77.78125 304.265625 78.335938 C 304.496094 78.886719 304.695312 79.449219 304.871094 80.023438 C 305.042969 80.597656 305.191406 81.175781 305.304688 81.761719 C 305.421875 82.351562 305.511719 82.941406 305.570312 83.539062 C 305.628906 84.132812 305.65625 84.730469 305.65625 85.328125 Z M 305.65625 85.328125 " fill-opacity="1" fill-rule="nonzero"/></svg>