<svg xmlns="http://www.w3.org/2000/svg" xmlns:xlink="http://www.w3.org/1999/xlink" width="500" zoomAndPan="magnify" viewBox="0 0 375 374.999991" height="500" preserveAspectRatio="xMidYMid meet" version="1.0"><defs><clipPath id="57d155fa61"><path d="M 7.96875 7.96875 L 367.21875 7.96875 L 367.21875 367.21875 L 7.96875 367.21875 Z M 7.96875 7.96875 " clip-rule="nonzero"/></clipPath></defs><rect x="-37.5" width="450" fill="#ffffff" y="-37.499999" height="449.999989" fill-opacity="1"/><rect x="-37.5" width="450" fill="#ffffff" y="-37.499999" height="449.999989" fill-opacity="1"/><rect x="-37.5" width="450" fill="#1d1d1d" y="-37.499999" height="449.999989" fill-opacity="1"/><g clip-path="url(#57d155fa61)"><path fill="#ffd600" d="M 7.96875 7.96875 L 367.21875 7.96875 L 367.21875 367.21875 L 7.96875 367.21875 Z M 7.96875 7.96875 " fill-opacity="1" fill-rule="nonzero"/></g><path fill="#000001" d="M 242.859375 276.878906 C 249.765625 288.09375 257.269531 298.84375 273.164062 298.84375 C 286.519531 298.84375 293.523438 292.207031 293.523438 283.023438 C 293.523438 272.039062 286.277344 268.136719 271.589844 261.738281 L 263.535156 258.308594 C 240.292969 248.449219 224.835938 236.09375 224.835938 209.996094 C 224.835938 185.949219 243.25 167.644531 272.019531 167.644531 C 292.503906 167.644531 307.222656 174.742188 317.84375 193.324219 L 292.753906 209.359375 C 287.234375 199.5 281.269531 195.617188 272.019531 195.617188 C 262.578125 195.617188 256.601562 201.574219 256.601562 209.359375 C 256.601562 218.980469 262.585938 222.871094 276.410156 228.828125 L 284.460938 232.261719 C 311.855469 243.925781 327.300781 255.84375 327.300781 282.625 C 327.300781 311.484375 304.511719 327.300781 273.914062 327.300781 C 243.988281 327.300781 226.992188 312.285156 217.53125 293.691406 Z M 127.242188 277.695312 C 132.289062 286.738281 139.964844 293.691406 151 293.691406 C 161.558594 293.691406 167.636719 289.523438 167.636719 273.304688 L 167.636719 167.636719 L 200.898438 167.636719 L 200.898438 278.414062 C 200.898438 312.015625 181.40625 327.300781 152.945312 327.300781 C 127.230469 327.300781 108.667969 309.878906 101.105469 293.691406 Z M 127.242188 277.695312 " fill-opacity="1" fill-rule="nonzero"/></svg>