<svg xmlns="http://www.w3.org/2000/svg" xmlns:xlink="http://www.w3.org/1999/xlink" width="500" zoomAndPan="magnify" viewBox="0 0 375 374.999991" height="500" preserveAspectRatio="xMidYMid meet" version="1.0"><rect x="-37.5" width="450" fill="#ffffff" y="-37.499999" height="449.999989" fill-opacity="1"/><rect x="-37.5" width="450" fill="#ffffff" y="-37.499999" height="449.999989" fill-opacity="1"/><rect x="-37.5" width="450" fill="#17cab1" y="-37.499999" height="449.999989" fill-opacity="1"/><path fill="#1d1d1d" d="M 376.328125 -46.605469 L -1.378906 -46.605469 C -22.261719 -46.605469 -39.058594 -29.582031 -39.058594 -8.925781 L -39.058594 369.464844 C -39.058594 390.347656 -22.035156 407.144531 -1.378906 407.144531 L 376.101562 407.144531 C 396.984375 407.144531 413.78125 390.121094 413.78125 369.464844 L 413.78125 -8.925781 C 414.007812 -29.582031 397.210938 -46.605469 376.328125 -46.605469 Z M 95.089844 327.699219 L 28.128906 327.699219 L 28.128906 126.585938 L 95.089844 126.585938 Z M 61.496094 102.300781 C 40.386719 102.300781 23.363281 85.273438 23.363281 64.164062 C 23.363281 43.054688 40.386719 26.03125 61.496094 26.03125 C 82.605469 26.03125 99.628906 43.054688 99.628906 64.164062 C 99.628906 85.273438 82.605469 102.300781 61.496094 102.300781 Z M 347.046875 327.699219 L 279.859375 327.699219 L 278.269531 208.300781 C 278.269531 208.300781 279.859375 176.523438 245.128906 176.75 C 210.398438 176.976562 205.632812 208.300781 205.632812 208.300781 L 205.632812 327.699219 L 137.992188 327.699219 L 137.992188 126.585938 L 202.910156 126.585938 L 202.910156 154.277344 C 202.910156 154.277344 205.632812 145.199219 220.613281 134.53125 C 235.597656 123.863281 260.335938 121.59375 271.007812 122.046875 C 281.675781 122.5 296.203125 120.683594 320.488281 137.480469 C 346.59375 155.414062 347.273438 202.402344 347.273438 202.402344 Z M 347.046875 327.699219 " fill-opacity="1" fill-rule="nonzero"/></svg>