<?xml version="1.0" encoding="utf-8"?>
<!-- Generator: Adobe Illustrator 24.3.0, SVG Export Plug-In . SVG Version: 6.00 Build 0)  -->
<svg version="1.1" id="Calque_1" xmlns="http://www.w3.org/2000/svg" xmlns:xlink="http://www.w3.org/1999/xlink" x="0px" y="0px"
	 viewBox="0 0 595.28 419.53" style="enable-background:new 0 0 595.28 419.53;" xml:space="preserve">
<style type="text/css">
	.st0{fill:#A94722;}
</style>
<g>
	<path class="st0" d="M365.01,87.04c0-37.07-29.08-67.23-64.83-67.23c-35.64,0-64.63,30.16-64.63,67.23
		c0,36.87,29,66.87,64.63,66.87C335.93,153.91,365.01,123.91,365.01,87.04z M242.4,87.04c0-33.37,25.92-60.52,57.78-60.52
		c31.87,0,57.79,27.15,57.79,60.52c0,33.16-25.93,60.14-57.79,60.14C268.32,147.18,242.4,120.2,242.4,87.04z"/>
	<path class="st0" d="M247.29,147.57h-86.1V19.81h-6v134.63h0.06v128.57h6.87v-72.8h78.31v72.8h6.86V153.78h-0.03L247.29,147.57z
		 M162.12,203.62v-49.18h78.31v49.18H162.12z"/>
	<path class="st0" d="M73.67,160.86c16.89,0,32.45,7,43.39,19.36l5.22-3.8c-12.31-14.03-29.77-21.99-48.61-21.99
		c-35.75,0-64.83,28.8-64.83,64.19c0,35.5,29.08,64.39,64.83,64.39c18.82,0,36.21-7.89,48.45-21.83l-5.13-3.78
		c-11.11,12.24-26.64,19.18-43.32,19.18c-32.17,0-58.34-26.01-58.34-57.96C15.33,186.78,41.5,160.86,73.67,160.86z"/>
	<path class="st0" d="M454.35,283.02c-35.64,0-64.63,27.73-64.63,61.8c0,33.9,29,61.47,64.63,61.47c35.75,0,64.83-27.57,64.83-61.47
		C519.18,310.75,490.1,283.02,454.35,283.02z M454.35,400.12c-31.86,0-57.78-24.8-57.78-55.29c0-30.68,25.92-55.65,57.78-55.65
		c31.87,0,57.8,24.97,57.8,55.65C512.15,375.32,486.22,400.12,454.35,400.12z"/>
	<polygon class="st0" points="498.92,250.74 498.92,258.92 534.11,258.92 534.11,406.78 540.96,406.78 540.96,258.92 576.16,258.92 
		576.16,250.74 	"/>
	<path class="st0" d="M333.63,154.15h-10.57L275.6,283.02h0v123.27h6.48V289.72l45.54,64.84l45.68-64.79v116.52h6.5V283.02h0
		L333.63,154.15z M327.62,343.38l-44.17-60.36l45.02-123.43l42.69,123.43L327.62,343.38z"/>
	<polygon class="st0" points="328.46,192.82 299.09,283.1 357.74,283.1 	"/>
	<polygon class="st0" points="501.69,25.28 547.04,154.23 554.47,154.23 506.86,19.6 496.29,19.6 451.1,147.85 388.32,147.57 
		388.32,19.81 382.32,19.81 382.32,154.44 456.1,154.23 	"/>
	<polygon class="st0" points="472.31,154.23 530.97,154.23 501.69,59.96 	"/>
</g>
</svg>
