<?xml version="1.0" encoding="UTF-8"?>
<svg width="552px" height="144px" viewBox="0 0 552 144" version="1.1" xmlns="http://www.w3.org/2000/svg" xmlns:xlink="http://www.w3.org/1999/xlink">
    <!-- Generator: Sketch 50.2 (55047) - http://www.bohemiancoding.com/sketch -->
    <title>iPhone 8</title>
    <desc>Created with Sketch.</desc>
    <defs>
        <linearGradient x1="-5.79903349%" y1="49.8814698%" x2="928.895184%" y2="51.3630976%" id="linearGradient-1">
            <stop stop-color="#0040A3" offset="0%"></stop>
            <stop stop-color="#43B5E3" offset="54%"></stop>
            <stop stop-color="#95D324" offset="100%"></stop>
        </linearGradient>
        <linearGradient x1="-272.05561%" y1="48.8901789%" x2="1193.65319%" y2="53.9595155%" id="linearGradient-2">
            <stop stop-color="#0040A3" offset="0%"></stop>
            <stop stop-color="#43B5E3" offset="54%"></stop>
            <stop stop-color="#95D324" offset="100%"></stop>
        </linearGradient>
        <linearGradient x1="-93.7438424%" y1="49.6498162%" x2="597.03202%" y2="51.0995123%" id="linearGradient-3">
            <stop stop-color="#0040A3" offset="0%"></stop>
            <stop stop-color="#43B5E3" offset="54%"></stop>
            <stop stop-color="#95D324" offset="100%"></stop>
        </linearGradient>
        <linearGradient x1="-1071.97404%" y1="49.4419803%" x2="1069.72127%" y2="50.5079411%" id="linearGradient-4">
            <stop stop-color="#0040A3" offset="0%"></stop>
            <stop stop-color="#43B5E3" offset="54%"></stop>
            <stop stop-color="#95D324" offset="100%"></stop>
        </linearGradient>
        <linearGradient x1="-209.354761%" y1="49.4503356%" x2="463.360518%" y2="50.899893%" id="linearGradient-5">
            <stop stop-color="#0040A3" offset="0%"></stop>
            <stop stop-color="#43B5E3" offset="54%"></stop>
            <stop stop-color="#95D324" offset="100%"></stop>
        </linearGradient>
        <linearGradient x1="-466.467662%" y1="48.9297529%" x2="231.181592%" y2="50.3794513%" id="linearGradient-6">
            <stop stop-color="#0040A3" offset="0%"></stop>
            <stop stop-color="#43B5E3" offset="54%"></stop>
            <stop stop-color="#95D324" offset="100%"></stop>
        </linearGradient>
        <linearGradient x1="-1260.86292%" y1="49.0812331%" x2="880.832379%" y2="50.5773672%" id="linearGradient-7">
            <stop stop-color="#0040A3" offset="0%"></stop>
            <stop stop-color="#43B5E3" offset="54%"></stop>
            <stop stop-color="#95D324" offset="100%"></stop>
        </linearGradient>
        <linearGradient x1="-1260.09927%" y1="46.6347922%" x2="881.596029%" y2="52.1147481%" id="linearGradient-8">
            <stop stop-color="#0040A3" offset="0%"></stop>
            <stop stop-color="#43B5E3" offset="54%"></stop>
            <stop stop-color="#95D324" offset="100%"></stop>
        </linearGradient>
        <linearGradient x1="-582.844828%" y1="48.6184083%" x2="107.931034%" y2="50.0778362%" id="linearGradient-9">
            <stop stop-color="#0040A3" offset="0%"></stop>
            <stop stop-color="#43B5E3" offset="54%"></stop>
            <stop stop-color="#95D324" offset="100%"></stop>
        </linearGradient>
    </defs>
    <g id="iPhone-8" stroke="none" stroke-width="1" fill="none" fill-rule="evenodd">
        <path d="M21.62,141.74 C25.22,141.74 26.41,140.14 26.41,136.53 L26.41,75.15 C30.81,71.15 40.81,64.55 55.21,63.35 C58.61,63.15 60.21,61.75 60.21,58.15 L60.21,45.35 C60.21,41.95 58.61,40.55 55.21,40.55 C43.9961155,40.6417332 33.3602362,45.5391169 26,54 L25.41,47 C25.21,43.6 24.01,42.2 20.41,42.2 L5,42.2 C1.6,42.2 0.2,43.6 0.2,47 L0.2,136.58 C0.2,140.19 1.6,141.79 5,141.79 L21.62,141.74 Z" id="Shape" fill="url(#linearGradient-1)" fill-rule="nonzero"></path>
        <path d="M117.44,29.55 C119.972644,29.6135686 122.371269,28.4142563 123.84,26.35 L138.23,5.16 C140.23,2.36 139.43,0.16 135.83,0.16 L118.43,0.16 C114.84,0.16 112.84,2.16 111.43,5.16 L101.83,24.75 C100.03,28.35 101.44,29.55 104.43,29.55 L117.44,29.55 Z" id="Shape" fill="url(#linearGradient-2)" fill-rule="nonzero"></path>
        <path d="M72.84,70 L72.84,113.79 C72.84,131.79 84.44,143.38 113.84,143.38 C143.24,143.38 153.64,131.79 153.64,113.79 L153.64,111.59 C153.64,108.2 152.04,106.59 148.64,106.59 L134.64,106.59 C131.05,106.59 129.64,108.2 129.64,111.59 L129.64,112.59 C129.64,119.59 125.83,123.59 114.04,123.59 C102.25,123.59 98.44,119.59 98.44,112.59 L98.44,97.79 L149.63,97.79 C152.83,97.79 154.04,96.39 154.04,93.19 L154.04,70 C154.04,52.2 143.23,40.6 114.04,40.6 C84.64,40.55 72.84,52.15 72.84,70 Z M98.44,71.4 C98.44,64.4 102.64,60.4 114.04,60.4 C125.23,60.4 129.64,64.4 129.64,71.4 L129.64,80.2 L98.44,80.2 L98.44,71.4 Z" id="Shape" fill="url(#linearGradient-3)" fill-rule="nonzero"></path>
        <path d="M298.92,141.74 C302.52,141.74 303.71,140.14 303.71,136.53 L303.71,7.15 C303.71,3.55 302.52,1.96 298.92,1.96 L282.32,1.96 C278.92,1.96 277.52,3.55 277.52,7.15 L277.52,136.53 C277.52,140.14 278.92,141.74 282.32,141.74 L298.92,141.74 Z" id="Shape" fill="url(#linearGradient-4)" fill-rule="nonzero"></path>
        <path d="M201.48,84.15 C181.68,84.15 171.28,95.95 171.28,109.34 L171.28,118.34 C171.28,131.54 180.68,143.34 200.28,143.34 C211.129578,143.264825 221.605955,139.370261 229.87,132.34 L230.27,136.53 C230.67,140.14 231.47,141.74 235.07,141.74 L249.87,141.74 C253.47,141.74 254.66,140.14 254.66,136.53 L254.66,69.34 C254.66,51.55 243.87,40.55 214.47,40.55 C186.08,40.55 174.08,51.55 174.08,69.34 L174.08,72 C174.08,75.6 175.48,77 179.08,77 L193.68,77 C197.27,77 198.68,75.6 198.68,72 L198.68,70.6 C198.68,63.4 202.68,60.2 214.08,60.2 C225.48,60.2 229.08,64.2 229.08,71.4 L229.08,84.2 L201.48,84.15 Z M229.06,114 C224.47,117.39 216.27,122.59 207.06,122.59 C201.06,122.59 196.86,120.79 196.86,114.79 L196.86,111.59 C196.86,106.39 198.86,102.59 206.46,102.59 L229.04,102.59 L229.06,114 Z" id="Shape" fill="url(#linearGradient-5)" fill-rule="nonzero"></path>
        <path d="M391.15,108.34 L376.35,108.34 C372.96,108.34 371.76,109.74 371.76,112.94 L371.76,117.54 C371.76,130.34 382.76,143.33 411.76,143.33 C440.76,143.33 452.16,130.33 452.16,117.54 L452.16,106.94 C452.16,97.54 445.36,90.34 432.96,86.34 L404.15,77 C401.35,76 397.95,73.8 397.95,69.8 L397.95,67.14 C398,61 403.76,59 412.35,59 C420.94,59 427,61 427,67.14 L427,71 C427,74.39 428.19,75.6 431.4,75.6 L446.2,75.6 C449.8,75.6 450.8,74.39 450.8,71 L450.8,67.14 C450.8,54.35 441.4,40.55 412.6,40.55 C383.6,40.55 374.2,54.35 374.2,67.14 L374.2,74.14 C374.2,84.14 382.61,92.73 390,95.34 L419,105.13 C425.4,107.33 428,109.13 428,112.72 L428,116.34 C428,122.53 420.79,124.73 411.8,124.73 C402.81,124.73 395.8,122.53 395.8,116.34 L395.8,112.93 C395.76,109.74 394.55,108.34 391.15,108.34 Z" id="Shape" fill="url(#linearGradient-6)" fill-rule="nonzero"></path>
        <path d="M326.94,136.53 C326.94,140.14 328.34,141.74 331.74,141.74 L348.34,141.74 C351.93,141.74 353.13,140.14 353.13,136.53 L353.13,47.15 C353.13,43.55 351.93,42.15 348.34,42.15 L331.74,42.15 C328.34,42.15 326.94,43.55 326.94,47.15 L326.94,136.53 Z" id="Shape" fill="url(#linearGradient-7)" fill-rule="nonzero"></path>
        <path d="M331.74,29.15 L348.34,29.15 C351.93,29.15 353.13,27.75 353.13,24.35 L353.13,7.15 C353.13,3.55 351.93,1.96 348.34,1.96 L331.74,1.96 C328.34,1.96 326.94,3.55 326.94,7.15 L326.94,24.35 C326.94,27.75 328.34,29.15 331.74,29.15 Z" id="Shape" fill="url(#linearGradient-8)" fill-rule="nonzero"></path>
        <path d="M546.78,97.74 C549.98,97.74 551.19,96.34 551.19,93.14 L551.19,70 C551.19,52.2 540.38,40.6 511.19,40.6 C481.79,40.6 469.99,52.2 469.99,70 L469.99,113.79 C469.99,131.79 481.6,143.38 510.99,143.38 C540.38,143.38 550.79,131.79 550.79,113.79 L550.79,111.59 C550.79,108.2 549.2,106.59 545.79,106.59 L531.79,106.59 C528.19,106.59 526.79,108.2 526.79,111.59 L526.79,112.59 C526.79,119.59 522.99,123.59 511.19,123.59 C499.39,123.59 495.59,119.59 495.59,112.59 L495.59,97.79 L546.78,97.74 Z M495.59,80.15 L495.59,71.35 C495.59,64.35 499.79,60.35 511.19,60.35 C522.38,60.35 526.79,64.35 526.79,71.35 L526.79,80.15 L495.59,80.15 Z" id="Shape" fill="url(#linearGradient-9)" fill-rule="nonzero"></path>
    </g>
</svg>