<svg xmlns="http://www.w3.org/2000/svg" xmlns:xlink="http://www.w3.org/1999/xlink" width="500" zoomAndPan="magnify" viewBox="0 0 375 374.999991" height="500" preserveAspectRatio="xMidYMid meet" version="1.0"><path fill="#18727d" d="M 302.246094 169.570312 L 286.246094 185.324219 L 132.914062 338.320312 C 129.222656 342.046875 123.738281 342.835938 118.585938 337.695312 L 88.753906 308.292969 C 85.078125 304.261719 84.902344 298.71875 89.144531 294.453125 L 214.238281 169.496094 Z M 302.246094 169.570312 " fill-opacity="1" fill-rule="nonzero"/><path fill="#229a9a" d="M 302.246094 169.570312 L 370.527344 238.027344 C 373.945312 241.441406 374.207031 248.527344 369.972656 252.777344 L 340.210938 282.410156 C 336.652344 285.949219 330.667969 285.730469 326.808594 281.898438 L 214.253906 169.496094 Z M 302.246094 169.570312 " fill-opacity="1" fill-rule="nonzero"/><path fill="#25924a" d="M 74.300781 201.210938 L 89.851562 185.792969 L 240.160156 35.484375 C 243.84375 31.804688 250.136719 31.265625 254.484375 36.109375 L 284.363281 65.488281 C 288.183594 69.347656 288.195312 75.03125 283.949219 79.273438 L 161.863281 201.429688 Z M 74.300781 201.210938 " fill-opacity="1" fill-rule="nonzero"/><path fill="#5eb84e" d="M 74.195312 201.382812 L 5.835938 133.011719 C 2.414062 129.597656 2.171875 122.503906 6.390625 118.285156 L 36.101562 88.589844 C 39.648438 85 45.652344 85.25 49.5 89.078125 L 161.855469 201.433594 Z M 74.195312 201.382812 " fill-opacity="1" fill-rule="nonzero"/></svg>