<svg xmlns="http://www.w3.org/2000/svg" xmlns:xlink="http://www.w3.org/1999/xlink" width="500" zoomAndPan="magnify" viewBox="0 0 375 374.999991" height="500" preserveAspectRatio="xMidYMid meet" version="1.0"><defs><clipPath id="a39233f6b1"><path d="M 6.136719 41.128906 L 360 41.128906 L 360 96 L 6.136719 96 Z M 6.136719 41.128906 " clip-rule="nonzero"/></clipPath><clipPath id="ab799c680d"><path d="M 6.136719 143 L 360 143 L 360 197 L 6.136719 197 Z M 6.136719 143 " clip-rule="nonzero"/></clipPath><clipPath id="099c902b1a"><path d="M 6.136719 244 L 360 244 L 360 297.628906 L 6.136719 297.628906 Z M 6.136719 244 " clip-rule="nonzero"/></clipPath></defs><rect x="-37.5" width="450" fill="#ffffff" y="-37.499999" height="449.999989" fill-opacity="1"/><rect x="-37.5" width="450" fill="#ffffff" y="-37.499999" height="449.999989" fill-opacity="1"/><rect x="-37.5" width="450" fill="#1d1d1d" y="-37.499999" height="449.999989" fill-opacity="1"/><g clip-path="url(#a39233f6b1)"><path fill="#dde8f0" d="M 333.355469 95.414062 L 33.222656 95.414062 C 18.449219 95.414062 6.472656 83.453125 6.472656 68.695312 C 6.257812 51.28125 22.769531 41.199219 33.3125 41.976562 C 39.816406 41.996094 333.15625 41.960938 333.796875 41.980469 C 368.863281 43.867188 368.660156 94.011719 333.355469 95.414062 Z M 333.355469 95.414062 " fill-opacity="1" fill-rule="nonzero"/></g><g clip-path="url(#ab799c680d)"><path fill="#dde8f0" d="M 333.355469 196.558594 L 33.222656 196.558594 C 18.449219 196.558594 6.472656 184.597656 6.472656 169.839844 C 6.257812 152.425781 22.769531 142.347656 33.3125 143.125 C 39.816406 143.140625 333.15625 143.105469 333.796875 143.125 C 368.863281 145.011719 368.660156 195.15625 333.355469 196.558594 Z M 333.355469 196.558594 " fill-opacity="1" fill-rule="nonzero"/></g><g clip-path="url(#099c902b1a)"><path fill="#dde8f0" d="M 333.355469 297.703125 L 33.222656 297.703125 C 18.449219 297.703125 6.472656 285.742188 6.472656 270.988281 C 6.257812 253.570312 22.769531 243.492188 33.3125 244.269531 C 39.816406 244.285156 333.15625 244.25 333.796875 244.273438 C 368.863281 246.15625 368.660156 296.300781 333.355469 297.703125 Z M 333.355469 297.703125 " fill-opacity="1" fill-rule="nonzero"/></g></svg>