<svg xmlns="http://www.w3.org/2000/svg" xmlns:xlink="http://www.w3.org/1999/xlink" width="500" zoomAndPan="magnify" viewBox="0 0 375 374.999991" height="500" preserveAspectRatio="xMidYMid meet" version="1.0"><defs><clipPath id="5695527fdc"><path d="M 0 259 L 374 259 L 374 316.230469 L 0 316.230469 Z M 0 259 " clip-rule="nonzero"/></clipPath></defs><rect x="-37.5" width="450" fill="#ffffff" y="-37.499999" height="449.999989" fill-opacity="1"/><rect x="-37.5" width="450" fill="#ffffff" y="-37.499999" height="449.999989" fill-opacity="1"/><rect x="-37.5" width="450" fill="#f2f2f2" y="-37.499999" height="449.999989" fill-opacity="1"/><path fill="#1d1d1d" d="M 345.472656 102.1875 L 28.597656 102.1875 C 13 102.1875 0.351562 89.527344 0.351562 73.910156 C 0.125 55.476562 17.5625 44.804688 28.691406 45.628906 C 35.558594 45.648438 345.261719 45.609375 345.9375 45.632812 C 382.960938 47.628906 382.75 100.703125 345.472656 102.1875 Z M 345.472656 102.1875 " fill-opacity="1" fill-rule="nonzero"/><path fill="#1d1d1d" d="M 345.472656 209.25 L 28.597656 209.25 C 13 209.25 0.351562 196.585938 0.351562 180.96875 C 0.125 162.535156 17.5625 151.867188 28.691406 152.6875 C 35.558594 152.707031 345.261719 152.667969 345.9375 152.691406 C 382.960938 154.6875 382.75 207.765625 345.472656 209.25 Z M 345.472656 209.25 " fill-opacity="1" fill-rule="nonzero"/><g clip-path="url(#5695527fdc)"><path fill="#1d1d1d" d="M 345.472656 316.308594 L 28.597656 316.308594 C 13 316.308594 0.351562 303.648438 0.351562 288.027344 C 0.125 269.59375 17.5625 258.925781 28.691406 259.75 C 35.558594 259.765625 345.261719 259.730469 345.9375 259.753906 C 382.960938 261.746094 382.75 314.824219 345.472656 316.308594 Z M 345.472656 316.308594 " fill-opacity="1" fill-rule="nonzero"/></g></svg>