<svg xmlns="http://www.w3.org/2000/svg" xmlns:xlink="http://www.w3.org/1999/xlink" width="500" zoomAndPan="magnify" viewBox="0 0 375 374.999991" height="500" preserveAspectRatio="xMidYMid meet" version="1.0"><defs><g/><clipPath id="5ab977f03b"><path d="M 0 250.621094 L 375 250.621094 L 375 375 L 0 375 Z M 0 250.621094 " clip-rule="nonzero"/></clipPath></defs><rect x="-37.5" width="450" fill="#ffffff" y="-37.499999" height="449.999989" fill-opacity="1"/><rect x="-37.5" width="450" fill="#ffffff" y="-37.499999" height="449.999989" fill-opacity="1"/><rect x="-37.5" width="450" fill="#f2f2f2" y="-37.499999" height="449.999989" fill-opacity="1"/><path stroke-linecap="butt" transform="matrix(-0.0491752, -0.748386, 0.748386, -0.0491752, -14.433212, 233.584789)" fill="none" stroke-linejoin="miter" d="M 43.822619 25.250061 C 48.191396 25.25005 52.222541 25.781128 55.926108 26.849175 C 59.641434 27.897116 63.420748 29.559951 67.254339 31.826602 L 69.942768 29.597035 C 71.830905 28.108256 73.37443 27.097911 74.573344 26.566 C 75.794754 26.00947 77.1907 25.735826 78.751471 25.73399 C 80.620238 25.731514 82.101718 26.142034 83.185516 26.964866 C 84.274853 27.782843 84.817499 28.977242 84.819335 30.538013 C 84.814394 31.169256 84.703461 31.824852 84.47546 32.514511 L 79.554294 48.705855 C 79.019075 50.575828 78.331934 51.898203 77.492187 52.683375 C 76.673571 53.464715 75.4423 53.853571 73.803231 53.855481 C 72.086205 53.852269 70.580714 53.330561 69.282243 52.279621 C 68.005585 51.214456 66.003432 49.036828 63.275101 45.757132 C 60.531328 42.633008 58.040303 40.428476 55.812081 39.149418 C 53.600474 37.855792 51.320536 37.204903 48.971584 37.207144 C 47.254558 37.203932 45.807623 37.776961 44.625922 38.920691 C 43.461179 40.044658 42.879421 41.431373 42.881331 43.070442 C 42.87861 44.938868 43.813613 46.675786 45.681484 48.275657 C 47.570143 49.876895 50.506871 51.891491 54.492353 54.309051 C 58.55579 56.731734 61.913977 58.925391 64.561716 60.88968 C 67.216017 62.833523 69.473395 65.257582 71.344585 68.157344 C 73.232732 71.037342 74.173401 74.35616 74.177329 78.109286 C 74.174789 80.530997 73.785954 82.953424 73.000431 85.375883 C 71.113362 91.614537 67.471809 96.354722 62.075772 99.596437 C 56.695327 102.839178 50.414285 104.456871 43.221569 104.45923 C 37.845649 104.455698 33.313797 103.839524 29.637092 102.600996 C 25.972488 101.337166 22.227398 99.232917 18.39211 96.277172 L 14.188831 99.795605 C 12.222887 101.435859 10.615022 102.551587 9.354841 103.142106 C 8.116815 103.713203 6.714648 104.002098 5.149022 103.998395 C 3.358553 104.000796 1.925213 103.572561 0.859397 102.714374 C -0.190487 101.852014 -0.713711 100.679768 -0.71513 99.192099 C -0.716219 98.414312 -0.55244 97.589943 -0.230015 96.734242 L 5.520397 79.282056 C 6.12925 77.244676 6.981525 75.792223 8.066145 74.934409 C 9.171554 74.077961 10.582942 73.648745 12.300309 73.64676 C 14.095634 73.649897 15.71417 74.278205 17.165972 75.537564 C 18.613943 76.775793 20.511545 79.035283 22.858779 82.316036 C 25.357028 85.919886 27.671307 88.431197 29.807497 89.839917 C 31.960303 91.23407 34.529572 91.930068 37.504911 91.92723 C 39.597838 91.929044 41.211647 91.596641 42.335944 90.929339 C 43.481372 90.258205 44.292785 89.189315 44.770184 87.722669 C 44.921893 87.320292 44.997204 86.73021 44.996456 85.947226 C 44.999178 84.0788 44.088795 82.364378 42.281241 80.799787 C 40.489278 79.23622 37.721055 77.357966 33.981771 75.165366 C 29.996631 72.742609 26.756613 70.577595 24.256517 68.669983 C 21.761619 66.762712 19.585688 64.370102 17.733921 61.492495 C 15.904649 58.590268 14.990232 55.189661 14.991353 51.28028 C 14.98908 48.53464 15.417144 45.832934 16.274861 43.185559 C 17.917463 37.807728 21.271157 33.476633 26.345996 30.198153 C 31.437792 26.899909 37.261829 25.246966 43.822619 25.250061 Z M 43.822619 25.250061 " stroke="#1d1d1d" stroke-width="4.394137" stroke-opacity="1" stroke-miterlimit="4"/><path stroke-linecap="butt" transform="matrix(0.234707, -0.712329, 0.712329, 0.234707, -15.753856, 152.485288)" fill="none" stroke-linejoin="miter" d="M 69.600429 87.839291 C 69.445086 88.466272 69.369346 88.935413 69.36995 89.236822 C 69.371329 89.790228 69.503238 90.223854 69.767364 90.526174 C 70.038067 90.831811 70.406472 90.984613 70.884105 90.986265 C 71.821271 90.984567 72.618207 90.57392 73.286437 89.756011 C 73.953037 88.933156 74.405731 88.526259 74.634683 88.52211 C 75.034912 88.521848 75.366719 88.779933 75.63505 89.294734 C 75.898435 89.811166 76.036351 90.412809 76.032328 91.099606 C 76.112045 93.288784 75.327111 95.466736 73.689106 97.618677 C 72.046211 99.755778 69.740819 101.529887 66.767984 102.942634 C 63.809988 104.350491 60.500308 105.057144 56.837312 105.057646 C 52.225628 105.058159 48.544464 104.121439 45.79708 102.257377 C 43.067911 100.365379 41.314102 97.905237 40.535653 94.87695 C 37.731542 97.983427 34.625327 100.339461 31.210432 101.941734 C 27.816953 103.542434 24.362017 104.340818 20.853829 104.34515 C 15.380752 104.344329 10.785264 102.995982 7.065678 100.31163 C 3.365878 97.620758 1.51612 93.854189 1.516405 89.011923 C 1.517407 86.818083 1.904084 84.54652 2.689588 82.203868 L 10.184301 57.71706 C 10.433803 57.0097 10.554405 56.427069 10.557631 55.970853 C 10.554017 55.111091 10.355453 54.42524 9.955361 53.909982 C 9.571738 53.394782 8.993792 52.87232 8.208367 52.335965 C 7.426545 51.710683 6.873389 51.163602 6.552159 50.704616 C 6.247457 50.229217 6.205159 49.601553 6.435159 48.818363 C 6.914056 47.026404 9.375259 45.442243 13.815449 44.072455 C 18.280373 42.694517 22.930651 42.012267 27.777864 42.010921 C 32.295674 42.008436 35.611464 42.868129 37.73018 44.588371 C 39.847266 46.303666 40.904784 48.647754 40.909309 51.623952 C 40.906414 53.412616 40.628702 55.132801 40.07786 56.772984 L 32.698837 81.144901 C 32.373048 82.003523 32.208814 82.819881 32.209396 83.603869 C 32.212154 84.710683 32.523866 85.540217 33.156056 86.094159 C 33.781726 86.628315 34.604319 86.894686 35.613942 86.896532 C 37.104514 86.893455 38.31163 86.462816 39.246812 85.606302 C 40.181995 84.749788 41.119229 83.300351 42.053567 81.25962 L 49.20079 57.715358 C 49.450292 57.007998 49.572524 56.430314 49.57412 55.969151 C 49.572136 55.114336 49.373572 54.428484 48.97348 53.913227 C 48.594804 53.396396 48.048168 52.869103 47.341777 52.339609 C 46.563271 51.70775 46.006799 51.167246 45.685569 50.70826 C 45.379236 50.227914 45.341885 49.59862 45.568568 48.822006 C 45.970063 47.028133 48.393378 45.445488 52.836885 44.069123 C 57.298492 42.697762 61.952087 42.008935 66.794353 42.009219 C 71.313794 42.011681 74.651 42.869801 76.805973 44.58358 C 78.962576 46.302306 80.039994 48.606934 80.041488 51.507359 C 80.037989 52.994614 79.722276 54.749255 79.094349 56.771282 Z M 69.600429 87.839291 " stroke="#1d1d1d" stroke-width="4.394137" stroke-opacity="1" stroke-miterlimit="4"/><path stroke-linecap="butt" transform="matrix(0.484741, -0.572299, 0.572299, 0.484741, 13.279539, 76.993039)" fill="none" stroke-linejoin="miter" d="M 61.27158 41.554049 C 67.298847 41.554421 72.030324 43.54648 75.462037 47.533593 C 78.897724 51.51734 80.613756 56.943994 80.61074 63.806216 C 80.612263 67.490717 80.107094 71.35867 79.094017 75.424756 C 76.74871 85.089977 72.372987 92.45473 65.964089 97.507701 C 59.557016 102.53865 52.142163 105.058203 43.712798 105.058412 C 38.313735 105.05834 33.618467 103.922931 29.634335 101.652795 L 25.887545 114.184163 C 25.583656 115.042206 25.430835 115.861026 25.432447 116.644597 C 25.427979 117.501574 25.619186 118.226941 26.002701 118.816724 C 26.400898 119.407722 26.918975 119.979087 27.545619 120.533577 C 28.156691 121.142209 28.558818 121.641147 28.74924 122.019075 C 28.95986 122.42085 28.987011 122.896118 28.837424 123.452828 C 28.510059 124.46044 27.759568 125.178017 26.571879 125.597001 C 25.412335 126.033098 23.620199 126.254196 21.19608 126.252952 L -5.63316 126.255261 C -7.658458 126.25749 -9.116276 125.922397 -10.01059 125.253349 C -10.906728 124.606322 -11.166194 123.768132 -10.785014 122.735414 C -10.63117 122.12732 -10.356468 121.621624 -9.953565 121.218933 C -9.571142 120.840414 -9.03181 120.485979 -8.32486 120.16021 C -7.140713 119.382473 -6.198196 118.57733 -5.491184 117.76007 C -4.806195 116.940985 -4.187816 115.632278 -3.632683 113.837922 L 13.473749 57.71288 C 13.70217 57.00749 13.816879 56.425718 13.8139 55.97093 C 13.818368 55.113953 13.616781 54.424681 13.21587 53.911062 C 12.833615 53.395293 12.252557 52.870447 11.472696 52.336525 C 10.689424 51.709934 10.146893 51.166107 9.841128 50.70841 C 9.537187 50.228692 9.496809 49.600815 9.727945 48.818045 C 10.201724 47.024341 12.664512 45.443435 17.105602 44.070743 C 21.550666 42.694686 26.193344 42.011266 31.038217 42.009779 C 34.485996 42.01082 37.323125 42.870362 39.534923 44.587189 C 41.765376 46.301866 43.042236 48.687733 43.366109 51.737448 C 48.666073 44.94814 54.638132 41.555201 61.27158 41.554049 Z M 47.684604 76.337389 C 49.552923 69.396863 50.486119 64.59985 50.487556 61.950323 C 50.490412 60.309775 50.232356 59.231497 49.716754 58.719464 C 49.223783 58.201915 48.506145 57.942916 47.57118 57.943074 C 46.868963 57.944035 45.95802 58.278774 44.857006 58.945143 C 43.7667 59.616094 42.680588 60.727153 41.590114 62.292392 L 32.32574 92.984453 C 33.275544 93.920476 34.415657 94.388157 35.727422 94.389647 C 37.844781 94.391348 39.857865 93.198169 41.7627 90.813476 C 43.689557 88.430607 45.663525 83.605245 47.684604 76.337389 Z M 47.684604 76.337389 " stroke="#1d1d1d" stroke-width="4.394137" stroke-opacity="1" stroke-miterlimit="4"/><path stroke-linecap="butt" transform="matrix(0.651326, -0.371853, 0.371853, 0.651326, 67.678351, 19.361597)" fill="none" stroke-linejoin="miter" d="M 39.7347 41.441572 C 49.649082 41.440325 56.830788 43.021577 61.272714 46.187268 C 65.737897 49.354243 67.968855 53.398723 67.968172 58.316184 C 67.96874 59.785866 67.807117 61.150957 67.481365 62.404351 C 66.315362 67.55612 63.058291 71.244182 57.697882 73.479525 C 52.358789 75.709046 46.054766 76.823919 38.790336 76.826726 C 35.109345 76.824272 31.66535 76.585286 28.465457 76.107826 C 28.388214 80.171932 29.483663 83.02237 31.751806 84.65914 C 34.02189 86.303015 37.188968 87.121583 41.247877 87.123891 C 43.118735 87.12446 44.912635 86.913166 46.626995 86.494532 C 48.342639 86.052641 50.536253 85.403841 53.207837 84.548132 C 55.380728 83.767553 56.858011 83.375497 57.64421 83.374547 C 58.50018 83.377446 58.92739 83.879235 58.925197 84.89154 C 59.00701 87.637069 57.984837 90.51998 55.870949 93.529286 C 53.771913 96.523081 50.652005 99.077982 46.515748 101.196569 C 42.373669 103.29384 37.379737 104.341021 31.524264 104.344576 C 22.846354 104.344053 15.732892 102.160044 10.183879 97.792547 C 4.6536 93.423752 1.89072 87.054472 1.888132 78.68665 C 1.887223 76.335158 2.193674 73.613381 2.806186 70.502585 C 4.766355 60.892365 9.047922 53.645013 15.648302 48.765054 C 22.246742 43.87799 30.273173 41.437476 39.7347 41.441572 Z M 29.29222 69.071118 C 29.595877 69.148523 30.02549 69.183887 30.580418 69.188841 C 33.862816 69.185635 36.35843 67.671705 38.072426 64.638005 C 39.789645 61.588154 40.611998 58.18334 40.532378 54.425506 C 40.458539 52.25428 39.839882 51.163401 38.675764 51.164497 C 37.817212 51.166121 36.797419 51.849352 35.615745 53.225819 C 34.454088 54.57773 33.29593 56.627335 32.152901 59.375276 C 31.027306 62.103183 30.076975 65.332976 29.29222 69.071118 Z M 29.29222 69.071118 " stroke="#1d1d1d" stroke-width="4.394137" stroke-opacity="1" stroke-miterlimit="4"/><path stroke-linecap="butt" transform="matrix(0.734938, -0.149551, 0.149551, 0.734938, 126.384517, -11.183779)" fill="none" stroke-linejoin="miter" d="M 57.5256 42.012555 C 61.910661 42.01193 65.412805 43.346437 68.02693 46.015039 C 70.639066 48.66729 71.943695 51.946412 71.944884 55.858547 C 71.944054 57.325337 71.78934 58.686404 71.484807 59.947888 C 70.705954 63.148526 69.216613 65.6093 67.022926 67.326145 C 64.829239 69.04299 62.209419 69.902437 59.158363 69.903447 C 56.203328 69.902736 53.958484 69.20676 52.435076 67.81249 C 50.909681 66.401871 49.564608 64.523013 48.399857 62.175917 C 47.773075 60.841853 47.178786 59.870511 46.628235 59.258864 C 46.092045 58.628879 45.475116 58.317314 44.768278 58.316987 C 43.986872 58.317433 43.301457 58.62974 42.710997 59.259014 C 42.118548 59.871938 41.595 60.955978 41.133171 62.520304 L 32.095323 91.811583 C 31.942864 92.195135 31.867376 92.775063 31.867822 93.556469 C 31.865389 94.587097 32.159774 95.438947 32.752016 96.106913 C 33.343308 96.753426 34.144031 97.389405 35.158251 98.020992 C 36.092799 98.652313 36.711094 99.166128 37.0172 99.568582 C 37.338706 99.947593 37.464697 100.451588 37.389031 101.084629 C 37.216098 102.091193 36.644658 102.835954 35.670645 103.312768 C 34.700787 103.769167 33.038125 103.999548 30.693907 104.000885 L 0.716564 104.002559 C -1.324279 104.001847 -2.79199 103.665981 -3.692711 102.999023 C -4.588328 102.333104 -4.919389 101.452532 -4.693075 100.366474 C -4.36513 99.433973 -3.549304 98.611381 -2.231323 97.906916 C -1.05046 97.275535 -0.0653502 96.535226 0.715878 95.673702 C 1.496067 94.817283 2.156407 93.452804 2.690756 91.584331 L 13.128006 57.714522 C 13.28453 57.337112 13.35889 56.788846 13.358178 56.087112 C 13.357999 55.226034 13.178389 54.567622 12.814243 54.110838 C 12.470601 53.63165 11.909753 53.044483 11.128673 52.33809 C 10.348365 51.706266 9.79452 51.163044 9.467139 50.708426 C 9.165365 50.232443 9.134802 49.599045 9.383579 48.820517 C 9.839027 47.026345 12.292738 45.442138 16.733465 44.070922 C 21.195645 42.698756 25.848593 42.008533 30.695335 42.011498 C 33.900631 42.009983 36.548849 42.734891 38.645091 44.18726 C 40.763826 45.633575 42.137949 47.683112 42.767461 50.335869 C 46.522504 44.78567 51.44494 42.013626 57.5256 42.012555 Z M 57.5256 42.012555 " stroke="#1d1d1d" stroke-width="4.394137" stroke-opacity="1" stroke-miterlimit="4"/><path stroke-linecap="butt" transform="matrix(0.731967, 0.163477, -0.163477, 0.731967, 199.243571, -24.302025)" fill="none" stroke-linejoin="miter" d="M 110.018244 58.660713 C 110.021112 65.603054 107.593848 72.7039 102.753971 79.970011 C 97.909012 87.237257 91.798403 93.234208 84.41706 97.961997 C 77.036852 102.69487 69.789707 105.060573 62.675624 105.059104 C 57.050113 105.056051 52.281694 104.087762 48.373179 102.142935 C 44.481591 100.178318 41.947171 97.360917 40.762024 93.703169 C 37.884647 97.211581 34.681524 99.858831 31.14984 101.656221 C 27.643572 103.447935 23.980435 104.346107 20.169458 104.343383 C 14.848443 104.341701 10.528216 103.038501 7.206508 100.423615 C 3.891019 97.812677 2.231702 93.967315 2.230826 88.897693 C 2.231371 86.223909 2.661759 83.491482 3.518587 80.68516 L 10.070418 57.71518 C 10.22284 57.083434 10.300304 56.617854 10.296592 56.314494 C 10.297451 55.529815 10.097902 54.875281 9.695672 54.340726 C 9.315453 53.785246 8.783231 53.194338 8.093924 52.569136 C 6.912723 51.557485 6.322552 50.65932 6.323411 49.874641 C 6.247667 48.770861 6.914158 47.597371 8.324019 46.359253 C 9.734422 45.099668 11.711678 44.060364 14.245621 43.243613 C 16.783511 42.420644 19.653449 42.00915 22.855435 42.009132 C 28.080414 42.010917 32.152601 43.278791 35.071997 45.812756 C 38.008913 48.353481 39.476137 51.649377 39.475939 55.710612 C 39.47561 57.525147 39.169804 59.477283 38.560792 61.577186 L 32.580827 81.516308 C 32.257717 82.602435 32.096366 83.337572 32.09564 83.716636 C 32.096171 84.746491 32.390775 85.539895 32.983401 86.09063 C 33.572621 86.626115 34.374534 86.895295 35.388004 86.893087 C 36.796924 86.893282 37.990655 86.407873 38.962981 85.43291 C 39.936442 84.46303 40.884958 82.879671 41.819831 80.685643 L 48.515718 57.71551 C 48.66814 57.083763 48.745604 56.618184 48.746975 56.313689 C 48.742751 55.530144 48.543202 54.875611 48.146056 54.339921 C 47.760753 53.785576 47.218365 53.196938 46.511538 52.564976 C 45.351804 51.553867 44.767852 50.65965 44.768711 49.87497 C 44.692967 48.77119 45.349292 47.599971 46.742768 46.360176 C 48.153172 45.10059 50.125344 44.062422 52.663235 43.239453 C 55.20226 42.421567 58.072198 42.010073 61.274184 42.010055 C 66.5952 42.011737 70.69448 43.257551 73.574296 45.757662 C 76.475579 48.258315 77.920793 51.575138 77.921239 55.710942 C 77.925247 57.353735 77.609275 59.308141 76.979541 61.578109 L 69.368469 86.663159 C 69.218604 87.043512 69.1407 87.626596 69.139841 88.411276 C 69.140914 89.419663 69.486349 90.201714 70.169929 90.753482 C 70.876111 91.310875 71.859932 91.582121 73.114629 91.58474 C 74.833127 91.585171 76.845136 90.820949 79.151792 89.297155 C 81.458447 87.773362 83.71864 85.587528 85.933504 82.744736 C 88.165295 79.882154 89.981878 76.498589 91.398502 72.590636 C 88.270443 69.863125 86.058734 67.176443 84.762238 64.525507 C 83.482669 61.85478 82.844215 59.115581 82.842929 56.314127 C 82.843771 52.327462 83.931047 48.952017 86.104755 46.187793 C 88.29539 43.403779 91.464261 42.012955 95.600065 42.012509 C 99.740952 42.010927 103.173313 43.496413 105.898282 46.474049 C 108.643584 49.447145 110.020672 53.510303 110.018244 58.660713 Z M 110.018244 58.660713 " stroke="#1d1d1d" stroke-width="4.394137" stroke-opacity="1" stroke-miterlimit="4"/><path stroke-linecap="butt" transform="matrix(0.627041, 0.411484, -0.411484, 0.627041, 295.015063, 5.140857)" fill="none" stroke-linejoin="miter" d="M 30.808614 42.010066 C 35.344555 42.011215 38.668052 42.870304 40.76468 44.58434 C 42.882945 46.302866 43.93777 48.650727 43.937867 51.622208 C 43.937842 53.416364 43.661042 55.130503 43.110322 56.768981 L 32.323554 91.812499 C 32.095751 92.746927 31.981436 93.569501 31.982107 94.273012 C 31.9791 95.284189 32.174085 96.084452 32.555497 96.675161 C 32.955687 97.266006 33.507738 97.831951 34.213146 98.365785 C 34.749412 98.91717 35.128921 99.372076 35.357387 99.739211 C 35.606264 100.080491 35.652116 100.530085 35.499295 101.085135 C 35.101941 102.09345 34.307795 102.838861 33.125564 103.315653 C 31.962249 103.773804 30.166457 103.999121 27.748259 103.997455 L 1.056911 104.001587 C -0.981364 103.999791 -2.469754 103.668291 -3.402406 102.997018 C -4.336556 102.332957 -4.650878 101.455266 -4.349729 100.366802 C -4.023679 99.430198 -3.202997 98.611307 -1.890539 97.905773 C -0.707218 97.278753 0.274713 96.534705 1.058111 95.677984 C 1.838652 94.816909 2.49714 93.456571 3.032214 91.585404 L 13.244184 57.716482 C 13.473208 57.01175 13.587247 56.426082 13.587662 55.971046 C 13.585224 55.112954 13.389421 54.425361 12.988685 53.90963 C 12.606728 53.394034 12.022563 52.874082 11.242041 52.339703 C 10.459343 51.707078 9.905659 51.167122 9.583983 50.705414 C 9.276867 50.227921 9.238094 49.599251 9.467663 48.819406 C 9.948714 47.027298 12.405851 45.445997 16.847783 44.069789 C 21.31135 42.698072 25.963509 42.01245 30.808614 42.010066 Z M 38.675895 16.121261 C 41.710924 16.12307 44.234567 17.12081 46.255397 19.127543 C 48.296639 21.108421 49.314723 23.54269 49.315501 26.420279 C 49.316562 28.462908 48.792101 30.464164 47.744973 32.4284 C 46.697982 34.373857 45.207253 35.956396 43.279999 37.177511 C 41.376015 38.377127 39.246697 38.977056 36.899258 38.978793 C 33.946556 38.979026 31.466185 37.990268 29.463996 36.00245 C 27.479226 34.003202 26.449984 31.513958 26.371917 28.537578 C 26.373031 26.593195 26.87817 24.666916 27.891686 22.755886 C 28.903841 20.833288 30.342589 19.247484 32.209289 18.010038 C 34.099259 16.751093 36.253343 16.122453 38.675895 16.121261 Z M 38.675895 16.121261 " stroke="#1d1d1d" stroke-width="4.394137" stroke-opacity="1" stroke-miterlimit="4"/><path stroke-linecap="butt" transform="matrix(0.476219, 0.579409, -0.579409, 0.476219, 335.521418, 31.907268)" fill="none" stroke-linejoin="miter" d="M 72.515521 87.83868 C 72.364223 88.145801 72.287337 88.608467 72.286294 89.241337 C 72.2847 89.792853 72.418972 90.220075 72.685803 90.527028 C 72.974627 90.831831 73.348441 90.98401 73.803941 90.98759 C 74.758207 90.983118 75.558359 90.575565 76.206988 89.753578 C 76.874301 88.933465 77.330348 88.526245 77.581744 88.523873 C 77.959195 88.523981 78.265711 88.782649 78.497268 89.296573 C 78.743486 89.809062 78.868941 90.411066 78.865584 91.095968 C 78.939681 93.368173 78.20111 95.579202 76.635927 97.73782 C 75.070027 99.889107 72.781962 101.655838 69.76699 103.027376 C 66.757917 104.383535 63.142038 105.05893 58.927402 105.060175 C 53.779775 105.056412 49.68176 103.86583 46.625311 101.481813 C 43.576192 99.09708 42.014109 95.912014 41.935754 91.93064 C 41.938873 89.047722 42.63979 85.807962 44.052449 82.202594 L 50.488009 65.325039 C 50.888602 64.312674 51.089778 63.493722 51.087513 62.864875 C 51.088663 61.854553 50.755851 61.061896 50.085771 60.490929 C 49.420872 59.897253 48.61862 59.601934 47.686346 59.604256 C 45.969129 59.6019 44.330738 60.405926 42.766432 62.005698 C 41.202126 63.605469 40.069787 65.57376 39.360651 67.896624 L 32.095888 91.811992 C 31.791641 92.674323 31.638473 93.492283 31.637101 94.273202 C 31.636116 95.2095 31.828651 95.967764 32.208808 96.563371 C 32.610957 97.156829 33.165179 97.753923 33.868881 98.366009 C 34.403589 98.839197 34.783359 99.279425 35.014805 99.678647 C 35.259479 100.061774 35.308648 100.526918 35.155699 101.082128 C 34.832437 102.090634 34.091264 102.836558 32.924134 103.313287 C 31.758877 103.771331 29.91985 103.999205 27.403746 104.000934 L 0.712777 104.001252 C -1.322529 104.000386 -2.794581 103.666931 -3.688718 102.999453 C -4.58688 102.328668 -4.920243 101.454656 -4.693549 100.366781 C -4.366428 99.435606 -3.54776 98.611799 -2.232803 97.905996 C -1.047374 97.275762 -0.0654441 96.532205 0.712988 95.675327 C 1.49875 94.817732 2.153713 93.454867 2.688513 91.581991 L 13.128795 57.716662 C 13.283565 57.331493 13.356593 56.791497 13.3578 56.084602 C 13.359336 55.229659 13.180141 54.570002 12.816906 54.109655 C 12.470924 53.636521 11.909372 53.040143 11.126353 52.3359 C 10.347193 51.708988 9.790657 51.163926 9.468817 50.710634 C 9.162795 50.229892 9.134514 49.599888 9.383975 48.820621 C 9.841279 47.025628 12.292 45.446519 16.734706 44.068632 C 21.196814 42.69995 25.850904 42.008176 30.695104 42.011997 C 34.606313 42.010809 37.690587 43.089564 39.965895 45.242806 C 42.23244 47.382102 43.241628 50.362186 42.994892 54.197719 C 46.198068 49.603237 49.591579 46.425904 53.179449 44.669029 C 56.784571 42.899366 60.690426 42.010605 64.905062 42.00936 C 69.675238 42.013015 73.516898 43.458082 76.435501 46.362529 C 79.369922 49.239526 80.842442 52.984707 80.842423 57.60281 C 80.842166 60.022898 80.449521 62.403635 79.665203 64.75235 Z M 72.515521 87.83868 " stroke="#1d1d1d" stroke-width="4.394137" stroke-opacity="1" stroke-miterlimit="4"/><path stroke-linecap="butt" transform="matrix(0.213124, 0.719081, -0.719081, 0.213124, 385.679334, 99.741915)" fill="none" stroke-linejoin="miter" d="M 72.514129 87.835988 C 72.362998 88.144293 72.284725 88.609999 72.287818 89.24106 C 72.286663 89.79481 72.421275 90.220399 72.688692 90.527813 C 72.974051 90.82968 73.346719 90.983591 73.803184 90.983073 C 74.759023 90.983891 75.559349 90.574654 76.204163 89.755363 C 76.871912 88.932004 77.329519 88.524404 77.579946 88.522575 C 77.9591 88.526305 78.264253 88.779716 78.495957 89.299268 C 78.740609 89.811794 78.866328 90.414012 78.864608 91.09797 C 78.940995 93.369573 78.199523 95.578041 76.637232 97.733361 C 75.069948 99.8872 72.781007 101.653319 69.77189 103.026724 C 66.757226 104.382188 63.144662 105.060674 58.929205 105.060702 C 53.779364 105.06084 49.678675 103.867189 46.625658 101.484742 C 43.579115 99.098782 42.013558 95.913204 41.933981 91.929487 C 41.934399 89.050503 42.640999 85.804999 44.05082 82.202962 L 50.487084 65.32575 C 50.88981 64.315198 51.089626 63.494391 51.091526 62.86481 C 51.092163 61.854595 50.757277 61.060008 50.088902 60.492517 C 49.422933 59.898578 48.620259 59.600923 47.685875 59.601032 C 45.968768 59.602743 44.329646 60.404383 42.76851 62.005952 C 41.202381 63.606042 40.065498 65.572374 39.359343 67.899954 L 32.098356 91.811985 C 31.789414 92.671068 31.638981 93.490214 31.640582 94.272937 C 31.640691 95.207321 31.827802 95.968974 32.211903 96.560856 C 32.612464 97.152184 33.161726 97.754992 33.871158 98.367245 C 34.404525 98.840399 34.785123 99.279139 35.014433 99.678472 C 35.25965 100.06079 35.310104 100.532056 35.157288 101.084314 C 34.831874 102.090619 34.089041 102.8374 32.926755 103.313191 C 31.763916 103.772521 29.920838 103.997645 27.404547 104.00151 L 0.715964 104.000827 C -1.325921 103.998627 -2.792204 103.667257 -3.691393 102.998763 C -4.585589 102.331748 -4.918249 101.456337 -4.692887 100.366056 C -4.366739 99.430588 -3.548809 98.613715 -2.231144 97.90693 C -1.050906 97.278924 -0.0641194 96.533827 0.716268 95.678666 C 1.498136 94.818512 2.152611 93.453424 2.689682 91.586363 L 13.130823 57.714298 C 13.281221 57.335156 13.36024 56.793619 13.357893 56.086727 C 13.357038 55.228173 13.178242 54.566766 12.81355 54.111011 C 12.47124 53.634728 11.90755 53.043942 11.127474 52.340131 C 10.348132 51.707157 9.792576 51.16224 9.470794 50.708338 C 9.161406 50.230949 9.136858 49.598961 9.384204 48.819403 C 9.839705 47.025947 12.29139 45.44387 16.734265 44.071691 C 21.198595 42.700438 25.852262 42.010015 30.692307 42.010407 C 34.60296 42.012388 37.696033 43.086663 39.963571 45.241738 C 42.230556 47.380353 43.242194 50.363732 42.997006 54.19687 C 46.200955 49.600114 49.591222 46.427514 53.180754 44.672043 C 56.781199 42.898077 60.694884 42.010063 64.905347 42.008555 C 69.674554 42.009681 73.520172 43.459102 76.435727 46.360332 C 79.373662 49.241033 80.839299 52.983683 80.839665 57.601228 C 80.838729 60.023747 80.447544 62.406655 79.666111 64.74995 Z M 72.514129 87.835988 " stroke="#1d1d1d" stroke-width="4.394137" stroke-opacity="1" stroke-miterlimit="4"/><path stroke-linecap="butt" transform="matrix(-0.0635829, 0.7473, -0.7473, -0.0635829, 404.83121, 180.267996)" fill="none" stroke-linejoin="miter" d="M 62.10484 42.010072 C 65.533933 42.011034 68.281615 43.402895 70.342696 46.186099 C 72.42321 48.951968 73.460046 52.721389 73.45795 57.48873 C 73.459513 61.623274 72.714652 66.077457 71.228118 70.845647 C 68.350337 80.457555 63.722025 89.523194 57.354446 98.052058 C 50.984659 106.554974 43.682885 113.380864 35.443934 118.53017 C 27.204982 123.679475 18.982321 126.255636 10.786328 126.257768 C 6.724438 126.253149 3.224915 125.547288 0.287759 124.140184 C -2.632504 122.747325 -4.85117 120.876599 -6.378176 118.534079 C -7.905624 116.18637 -8.666889 113.689836 -8.668044 111.034541 C -8.669231 109.853306 -8.475532 108.566628 -8.097324 107.175389 C -7.390057 104.982534 -6.215629 103.30401 -4.579231 102.140257 C -2.938968 100.960495 -0.982374 100.365394 1.286242 100.365777 C 4.872348 100.369061 7.820439 101.597511 10.125769 104.056758 C 12.436288 106.515564 13.904971 109.892795 14.531376 114.183262 C 19.530155 113.95658 24.135453 111.808422 28.348154 107.749167 C 24.362467 107.042853 21.415041 105.699349 19.510623 103.713024 C 17.599691 101.711572 16.29497 98.602656 15.591271 94.386719 L 10.897346 65.696995 C 10.671578 64.210784 10.33715 63.167672 9.900135 62.577597 C 9.478689 61.986197 8.915461 61.694353 8.209569 61.691687 C 7.655499 61.691785 7.009777 61.966266 6.262466 62.521202 C 5.520345 63.075696 4.994866 63.350401 4.691663 63.350063 C 4.064497 63.351152 3.746292 62.683015 3.747868 61.349957 C 3.749439 60.262576 3.947663 59.09051 4.347289 57.828128 C 5.741397 53.386657 8.353384 49.620411 12.188439 46.528948 C 16.018745 43.443116 20.471544 41.898601 25.546837 41.895404 C 30.544286 41.89883 34.230285 43.383352 36.616096 46.358467 C 39.000141 49.312824 40.543991 53.880677 41.247645 60.062027 L 44.768241 85.835516 C 44.997863 87.79707 45.693353 88.783326 46.85902 88.783462 C 48.270363 88.783605 49.90831 87.515178 51.778049 84.97774 C 53.667222 82.422966 55.502647 78.806428 57.295584 74.137619 C 54.95105 72.016245 53.150985 69.597642 51.889318 66.871872 C 50.651833 64.123137 50.030807 61.186045 50.03143 58.060155 C 50.034135 55.634527 50.345227 53.454471 50.974204 51.508727 C 51.910385 48.381644 53.371249 46.0149 55.352046 44.414127 C 57.353601 42.811588 59.606115 42.00836 62.10484 42.010072 Z M 62.10484 42.010072 " stroke="#1d1d1d" stroke-width="4.394137" stroke-opacity="1" stroke-miterlimit="4"/><path fill="#1d1d1d" d="M 137.832031 218.574219 C 129.90625 220.484375 150.796875 268.9375 201.535156 293.21875 C 201.902344 293.394531 202.285156 293.515625 202.6875 293.582031 C 203.085938 293.648438 203.488281 293.660156 203.894531 293.613281 C 204.296875 293.566406 204.6875 293.460938 205.0625 293.304688 C 205.4375 293.148438 205.78125 292.941406 206.097656 292.683594 C 207.300781 291.710938 235.777344 268.339844 256.378906 222.207031 C 256.589844 221.738281 256.710938 221.25 256.746094 220.738281 C 256.777344 220.226562 256.722656 219.726562 256.578125 219.234375 C 256.433594 218.742188 256.207031 218.289062 255.902344 217.878906 C 255.59375 217.46875 255.226562 217.121094 254.796875 216.84375 C 254.367188 216.5625 253.902344 216.367188 253.402344 216.253906 C 252.90625 216.140625 252.402344 216.117188 251.890625 216.183594 C 251.382812 216.25 250.902344 216.402344 250.449219 216.640625 C 249.996094 216.878906 249.597656 217.191406 249.253906 217.570312 C 249.082031 217.761719 231.703125 236.988281 214.90625 250.058594 C 213.957031 250.796875 212.957031 251.460938 211.910156 252.054688 C 210.863281 252.644531 209.777344 253.15625 208.65625 253.589844 C 207.53125 254.019531 206.382812 254.367188 205.210938 254.628906 C 204.035156 254.890625 202.847656 255.066406 201.648438 255.152344 C 200.449219 255.238281 199.25 255.238281 198.050781 255.148438 C 196.851562 255.058594 195.664062 254.878906 194.492188 254.617188 C 193.316406 254.351562 192.171875 254 191.046875 253.566406 C 189.925781 253.132812 188.84375 252.617188 187.796875 252.023438 C 175.054688 244.832031 156.953125 233.3125 143.074219 219.257812 C 142.738281 218.917969 142.355469 218.640625 141.925781 218.425781 C 141.496094 218.214844 141.046875 218.074219 140.570312 218.015625 C 140.09375 217.953125 139.625 217.96875 139.152344 218.066406 C 138.683594 218.160156 138.242188 218.328125 137.832031 218.574219 Z M 183.570312 259.519531 C 205.414062 270.863281 219.785156 258.539062 235.175781 243.984375 C 221.59375 266.0625 207.796875 279.601562 202.71875 284.210938 C 176.769531 271.113281 161.550781 252.996094 153.15625 239.527344 C 162.820312 246.914062 172.957031 253.578125 183.570312 259.519531 Z M 183.570312 259.519531 " fill-opacity="1" fill-rule="nonzero"/><path fill="#1d1d1d" d="M 121.457031 208.761719 C 91.597656 258.355469 74.925781 304.699219 65.714844 363.71875 C 60.878906 399.148438 70.949219 418.511719 90.292969 429.082031 C 92.480469 436.144531 95.566406 443.546875 95.707031 443.886719 C 97.992188 449.050781 105.734375 445.832031 103.644531 440.566406 C 76.457031 388.574219 119.6875 274.84375 120.1875 277.472656 C 122.320312 272.300781 114.71875 268.839844 112.296875 274.039062 C 105.390625 290.714844 99.761719 307.8125 95.402344 325.328125 C 86.496094 360.578125 83.984375 391.480469 87.886719 417.371094 C 46.699219 385.214844 104.226562 250.785156 128.84375 213.171875 C 129.5625 211.960938 146.421875 183.136719 146.421875 151.539062 C 146.421875 111.523438 158.976562 91.976562 185.9375 90.023438 C 201.007812 88.933594 212.183594 91.464844 220.097656 97.769531 C 224.542969 101.238281 229.835938 94.621094 225.457031 91.039062 C 222.929688 89.035156 220.203125 87.351562 217.273438 85.996094 C 225.09375 78.484375 236.34375 76.871094 243.375 85.722656 C 252.550781 96.566406 249.9375 105.804688 239.761719 112.363281 C 239.363281 111.222656 238.945312 110.109375 238.5 109.027344 C 236.253906 103.835938 228.480469 107.042969 230.546875 112.308594 C 231.394531 114.378906 232.117188 116.488281 232.714844 118.644531 C 232.660156 119.558594 232.878906 120.402344 233.371094 121.171875 C 233.761719 122.800781 234.121094 124.496094 234.441406 126.292969 C 239.570312 152.703125 241.851562 168.796875 244.042969 172.019531 C 244.652344 172.65625 304.902344 236.84375 319.339844 311.335938 C 328.652344 360.761719 328.320312 415.359375 297.535156 420.121094 C 305.597656 331.273438 283.847656 271.898438 275.84375 279.273438 C 275.59375 279.40625 275.359375 279.558594 275.136719 279.734375 C 274.917969 279.914062 274.71875 280.109375 274.535156 280.328125 C 274.355469 280.542969 274.199219 280.777344 274.0625 281.023438 C 273.925781 281.273438 273.816406 281.53125 273.734375 281.800781 C 273.648438 282.070312 273.589844 282.34375 273.5625 282.625 C 273.53125 282.90625 273.527344 283.1875 273.554688 283.46875 C 273.578125 283.75 273.628906 284.027344 273.710938 284.296875 C 273.789062 284.566406 273.894531 284.828125 274.023438 285.078125 C 274.253906 285.386719 298.210938 332.980469 288.507812 423.984375 C 288.464844 424.265625 287.996094 433.644531 285.113281 440.558594 C 283.011719 445.785156 290.734375 449.085938 293.042969 443.894531 C 295.175781 438.820312 296.210938 432.761719 296.691406 428.789062 C 336.820312 424.957031 338.203125 365.300781 327.785156 309.699219 C 317.632812 254.535156 278.265625 196.589844 251.121094 166.992188 C 250.246094 163.363281 245.507812 139.171875 242.164062 121.015625 C 257.480469 112.578125 263.753906 96.328125 250.042969 80.285156 C 238.808594 66.25 219.410156 69.300781 208.378906 82.914062 C 198.15625 80.417969 182.460938 80.378906 171.519531 84.125 C 160.761719 73.050781 143.84375 71.605469 134.046875 83.96875 C 121.375 98.882812 126.625 113.910156 140.675781 122.148438 C 138.765625 130.519531 137.820312 140.253906 137.820312 151.539062 C 137.816406 180.730469 121.601562 208.507812 121.457031 208.761719 Z M 140.710938 89.40625 C 146.5625 82.039062 155.8125 82.398438 162.949219 88.019531 C 159.367188 90.175781 156.160156 92.796875 153.332031 95.875 C 150.503906 98.957031 148.164062 102.371094 146.316406 106.125 C 145.101562 108.511719 144.050781 110.96875 143.164062 113.496094 C 134.203125 107.328125 132.648438 98.949219 140.710938 89.40625 Z M 140.710938 89.40625 " fill-opacity="1" fill-rule="nonzero"/><path fill="#1d1d1d" d="M 181.460938 130.664062 C 181.238281 130.488281 181.007812 130.332031 180.757812 130.199219 C 180.507812 130.066406 180.246094 129.960938 179.976562 129.878906 C 179.707031 129.796875 179.429688 129.746094 179.148438 129.71875 C 178.867188 129.691406 178.585938 129.691406 178.304688 129.722656 C 178.023438 129.75 177.75 129.804688 177.480469 129.890625 C 177.210938 129.972656 176.949219 130.082031 176.703125 130.214844 C 176.453125 130.347656 176.21875 130.503906 176 130.683594 C 175.785156 130.867188 175.585938 131.066406 175.40625 131.285156 L 164.652344 144.484375 C 164.140625 145.023438 163.679688 145.605469 163.269531 146.230469 C 162.863281 146.855469 162.515625 147.511719 162.226562 148.199219 C 161.9375 148.886719 161.714844 149.59375 161.558594 150.324219 C 161.398438 151.050781 161.308594 151.789062 161.285156 152.535156 C 161.261719 153.28125 161.304688 154.023438 161.417969 154.757812 C 161.527344 155.496094 161.707031 156.21875 161.949219 156.921875 C 162.195312 157.625 162.5 158.304688 162.867188 158.953125 C 163.234375 159.601562 163.660156 160.210938 164.136719 160.78125 C 172.410156 171.40625 187.023438 168.605469 191.875 156.324219 C 195.285156 149.308594 189.441406 140.488281 181.675781 140.734375 L 178.808594 140.734375 C 181.089844 137.726562 185.441406 134.394531 181.460938 130.664062 Z M 181.675781 149.339844 C 182.117188 149.339844 182.527344 149.441406 182.910156 149.652344 C 183.296875 149.863281 183.605469 150.15625 183.839844 150.523438 C 185.074219 152.128906 182.953125 154.867188 181.980469 156.25 C 181.710938 156.597656 181.410156 156.910156 181.078125 157.195312 C 180.746094 157.480469 180.386719 157.730469 180.003906 157.941406 C 179.621094 158.152344 179.222656 158.324219 178.804688 158.457031 C 178.386719 158.589844 177.960938 158.675781 177.527344 158.722656 C 177.089844 158.765625 176.65625 158.765625 176.21875 158.722656 C 175.785156 158.679688 175.359375 158.59375 174.941406 158.464844 C 174.523438 158.335938 174.121094 158.167969 173.738281 157.957031 C 173.355469 157.746094 172.996094 157.5 172.660156 157.214844 C 170.558594 155.503906 169.152344 153.425781 170.214844 151.40625 C 170.5 150.765625 170.933594 150.261719 171.523438 149.882812 C 172.113281 149.507812 172.757812 149.328125 173.457031 149.339844 Z M 181.675781 149.339844 " fill-opacity="1" fill-rule="nonzero"/><path fill="#1d1d1d" d="M 173.503906 116.664062 L 165.796875 114.71875 C 165.523438 114.648438 165.246094 114.605469 164.960938 114.589844 C 164.679688 114.574219 164.398438 114.589844 164.121094 114.628906 C 163.839844 114.671875 163.566406 114.738281 163.300781 114.832031 C 163.035156 114.925781 162.78125 115.046875 162.539062 115.191406 C 162.292969 115.335938 162.066406 115.503906 161.859375 115.691406 C 161.648438 115.882812 161.457031 116.089844 161.289062 116.316406 C 161.121094 116.542969 160.976562 116.785156 160.855469 117.039062 C 160.734375 117.296875 160.636719 117.558594 160.570312 117.832031 C 160.5 118.109375 160.457031 118.386719 160.441406 118.667969 C 160.429688 118.949219 160.441406 119.230469 160.484375 119.511719 C 160.523438 119.792969 160.589844 120.0625 160.6875 120.332031 C 160.78125 120.597656 160.902344 120.851562 161.046875 121.09375 C 161.191406 121.335938 161.359375 121.5625 161.546875 121.773438 C 161.738281 121.984375 161.945312 122.171875 162.171875 122.339844 C 162.398438 122.507812 162.640625 122.65625 162.894531 122.777344 C 163.152344 122.898438 163.414062 122.992188 163.6875 123.0625 C 164.339844 123.183594 172.003906 125.289062 172.453125 125.140625 C 177.417969 125.140625 178.378906 117.917969 173.503906 116.664062 Z M 173.503906 116.664062 " fill-opacity="1" fill-rule="nonzero"/><path fill="#1d1d1d" d="M 196.230469 124.457031 C 196.578125 124.613281 204.855469 122.375 205.441406 122.265625 C 210.898438 120.789062 208.839844 112.628906 203.332031 113.921875 L 195.179688 115.984375 C 190.308594 117.230469 191.261719 124.457031 196.230469 124.457031 Z M 196.230469 124.457031 " fill-opacity="1" fill-rule="nonzero"/><path fill="#f2f2f2" d="M -198.101562 253.855469 L 682.910156 253.855469 L 682.910156 732.636719 L -198.101562 732.636719 Z M -198.101562 253.855469 " fill-opacity="1" fill-rule="nonzero"/><g clip-path="url(#5ab977f03b)"><path fill="#f2f2f2" d="M 682.910156 735.871094 L -198.101562 735.871094 C -199.910156 735.871094 -201.332031 734.445312 -201.332031 732.636719 L -201.332031 253.855469 C -201.332031 252.042969 -199.910156 250.621094 -198.101562 250.621094 L 682.910156 250.621094 C 684.71875 250.621094 686.144531 252.042969 686.144531 253.855469 L 686.144531 732.636719 C 686.144531 734.445312 684.71875 735.871094 682.910156 735.871094 Z M -194.867188 729.398438 L 679.675781 729.398438 L 679.675781 257.089844 L -194.867188 257.089844 Z M -194.867188 729.398438 " fill-opacity="1" fill-rule="nonzero"/></g><path stroke-linecap="butt" transform="matrix(0.75, 0, 0, 0.75, -37.587953, 257.513597)" fill="none" stroke-linejoin="miter" d="M 123.372487 8.752705 C 130.309988 8.752705 135.539155 10.086038 139.05478 12.752705 C 142.580822 15.408955 144.341239 19.309997 144.341239 24.450623 C 144.341239 26.99229 143.877697 29.92979 142.950614 33.268332 C 141.424572 38.632915 139.362072 42.893332 136.763113 46.049582 C 134.174572 49.190208 130.763113 51.481874 126.523529 52.914166 C 122.299571 54.351666 116.872487 55.044375 110.247487 54.9975 L 91.362069 54.929791 C 90.393319 54.929791 89.63811 54.773541 89.10686 54.455833 C 88.57561 54.127708 88.309985 53.685 88.309985 53.117291 C 88.309985 52.846458 88.377693 52.549583 88.518319 52.221458 C 88.653735 51.799583 88.851652 51.502708 89.10686 51.320416 C 89.35686 51.138124 89.737069 50.888124 90.247485 50.559999 C 90.992277 50.138124 91.586027 49.674583 92.023527 49.169374 C 92.466235 48.658958 92.846444 47.851666 93.158944 46.742291 L 101.638111 16.872497 C 101.820403 16.273539 101.908944 15.695414 101.908944 15.14333 C 101.908944 14.632914 101.830819 14.20583 101.669361 13.856872 C 101.513111 13.502705 101.294361 13.096455 101.007903 12.632914 C 100.591236 12.033955 100.382903 11.54958 100.382903 11.17458 C 100.382903 11.039163 100.429778 10.783955 100.518319 10.414163 C 100.711028 9.815205 101.117278 9.388122 101.737069 9.14333 C 102.362069 8.882913 103.320403 8.752705 104.622486 8.752705 Z M 125.169363 31.74229 C 126.377696 27.388123 126.981863 23.966248 126.981863 21.466247 C 126.981863 19.013122 126.471446 17.325622 125.455821 16.398539 C 124.440196 15.471455 122.981862 15.007914 121.080821 15.007914 L 119.554779 15.007914 L 110.179778 48.742291 L 111.841237 48.742291 C 113.966237 48.742291 115.757904 48.299583 117.216237 47.403749 C 118.684987 46.502707 120.044362 44.836041 121.283946 42.403749 C 122.539154 39.971457 123.836029 36.419373 125.169363 31.74229 Z M 189.0652 8.752705 C 190.773534 8.752705 192.101659 9.122497 193.049575 9.872497 C 193.997492 10.606872 194.47145 11.622497 194.47145 12.92458 C 194.47145 13.565205 194.382909 14.190205 194.200617 14.789164 L 192.388117 21.247497 C 192.070409 22.502706 191.59645 23.372498 190.961034 23.856873 C 190.341242 24.341248 189.455825 24.586039 188.299575 24.586039 C 187.184992 24.586039 186.3152 24.341248 185.6902 23.856873 C 185.070408 23.372498 184.59645 22.575623 184.268325 21.466247 L 183.164158 17.497497 C 182.929783 16.664164 182.643325 16.11208 182.3152 15.836039 C 182.0027 15.554789 181.3777 15.414164 180.450616 15.414164 L 173.164157 15.414164 L 169.684991 27.77354 L 172.737074 27.77354 C 173.065199 27.77354 173.507907 27.539165 174.059991 27.075623 L 176.419366 25.007914 C 177.117283 24.398539 177.721449 23.961039 178.231866 23.684998 C 178.742283 23.403748 179.362074 23.263123 180.09645 23.263123 C 180.934991 23.263123 181.617283 23.481873 182.148533 23.924581 C 182.679783 24.367289 182.945408 24.929789 182.945408 25.622498 C 182.945408 25.809998 182.898533 26.096456 182.809991 26.466248 L 179.961033 36.112082 C 179.690199 37.132915 179.216241 37.882915 178.539158 38.36729 C 177.872491 38.856874 177.143324 39.096457 176.351658 39.096457 C 175.049574 39.096457 174.075616 38.424582 173.434991 37.080832 L 172.247491 34.653748 C 171.929782 33.955832 171.424574 33.606873 170.721449 33.606873 L 168.023532 33.606873 L 163.924573 48.336041 L 170.028741 48.336041 C 170.908949 48.336041 171.679782 48.164166 172.346449 47.809999 C 173.028741 47.461041 173.763116 46.851666 174.554782 45.981874 L 178.705824 41.388124 C 179.450616 40.606874 180.15895 40.039165 180.825616 39.690207 C 181.5027 39.341249 182.330825 39.164165 183.299575 39.164165 C 184.320408 39.164165 185.148533 39.39854 185.794367 39.862082 C 186.450617 40.325624 186.773533 41.018332 186.773533 41.945416 C 186.773533 42.320416 186.700617 42.757916 186.554783 43.268332 L 184.539158 50.268333 C 184.028741 52.033958 183.289158 53.263125 182.3152 53.96625 C 181.34645 54.65375 179.9402 54.9975 178.096449 54.9975 L 144.971447 54.9975 C 143.997489 54.9975 143.247489 54.84125 142.716239 54.523541 C 142.184989 54.195416 141.919364 53.757916 141.919364 53.200625 C 141.919364 52.919375 141.987072 52.617291 142.122489 52.289166 C 142.30478 51.778749 142.601655 51.388124 143.018322 51.117291 C 143.440197 50.836041 143.690197 50.669374 143.783947 50.627708 C 144.528739 50.164166 145.132906 49.690208 145.596447 49.200624 C 146.059989 48.716249 146.450614 47.919374 146.768322 46.809999 L 155.30999 16.872497 C 155.492281 16.273539 155.580823 15.721455 155.580823 15.211039 C 155.580823 14.658955 155.502698 14.195414 155.346448 13.820414 C 155.18499 13.445414 154.945406 13.054789 154.617281 12.632914 C 154.195406 12.033955 153.987073 11.54958 153.987073 11.17458 C 153.987073 11.039163 154.033948 10.783955 154.122489 10.414163 C 154.315198 9.815205 154.737073 9.388122 155.377698 9.14333 C 156.023531 8.882913 156.971448 8.752705 158.226656 8.752705 Z M 249.403746 15.414164 C 249.403746 17.086039 249.044371 18.528747 248.320412 19.737081 C 247.606871 20.934997 246.695412 21.846456 245.57562 22.466248 C 244.466245 23.086039 243.362079 23.398539 242.252704 23.398539 C 241.132912 23.398539 240.122495 23.169373 239.216245 22.705831 C 238.32562 22.242289 237.580828 21.617289 236.98187 20.841247 L 220.231869 49.033958 C 218.987077 51.158958 217.830827 52.685 216.752702 53.612083 C 215.690202 54.539166 214.492285 54.9975 213.158952 54.9975 C 211.72666 54.9975 210.575618 54.523541 209.721451 53.575625 C 208.862076 52.627708 208.242285 51.112083 207.872493 49.033958 L 202.039159 16.940206 C 201.903743 16.117289 201.648534 15.450622 201.278743 14.940205 C 200.903743 14.429789 200.419368 13.872497 199.820409 13.263122 C 199.356867 12.841247 199.028742 12.507914 198.836034 12.263122 C 198.653742 12.002705 198.565201 11.690205 198.565201 11.33083 C 198.336034 9.61208 199.362076 8.752705 201.632909 8.752705 L 218.992285 8.752705 C 220.054785 8.752705 220.862077 8.971455 221.414161 9.414163 C 221.971452 9.851663 222.226661 10.440205 222.179786 11.17458 C 222.179786 11.596455 222.096452 11.945414 221.924577 12.226664 C 221.768327 12.497497 221.507911 12.841247 221.143327 13.263122 C 220.726661 13.726664 220.398536 14.164164 220.16416 14.586039 C 219.934994 15.002705 219.825619 15.513122 219.825619 16.11208 C 219.825619 16.39333 219.846452 16.622497 219.893327 16.804789 L 222.533952 32.99229 L 231.757911 16.601664 C 233.38812 13.638122 234.987078 11.54958 236.554787 10.33083 C 238.127703 9.096455 240.070412 8.481872 242.38812 8.481872 C 244.51312 8.481872 246.211037 9.096455 247.492287 10.33083 C 248.768329 11.54958 249.403746 13.242289 249.403746 15.414164 Z M 286.55479 8.752705 C 288.263123 8.752705 289.591248 9.122497 290.539165 9.872497 C 291.487082 10.606872 291.96104 11.622497 291.96104 12.92458 C 291.96104 13.565205 291.872499 14.190205 291.690207 14.789164 L 289.877707 21.247497 C 289.559998 22.502706 289.08604 23.372498 288.455832 23.856873 C 287.830832 24.341248 286.945415 24.586039 285.794373 24.586039 C 284.674581 24.586039 283.80479 24.341248 283.17979 23.856873 C 282.559998 23.372498 282.08604 22.575623 281.757915 21.466247 L 280.653748 17.497497 C 280.419373 16.664164 280.132914 16.11208 279.809998 15.836039 C 279.492289 15.554789 278.867289 15.414164 277.940206 15.414164 L 270.653747 15.414164 L 267.179789 27.77354 L 270.226664 27.77354 C 270.554789 27.77354 270.997497 27.539165 271.549581 27.075623 L 273.908956 25.007914 C 274.606872 24.398539 275.211039 23.961039 275.721456 23.684998 C 276.231873 23.403748 276.851664 23.263123 277.586039 23.263123 C 278.424581 23.263123 279.106873 23.481873 279.638123 23.924581 C 280.169373 24.367289 280.434998 24.929789 280.434998 25.622498 C 280.434998 25.809998 280.388123 26.096456 280.299581 26.466248 L 277.450623 36.112082 C 277.179789 37.132915 276.705831 37.882915 276.028747 38.36729 C 275.362081 38.856874 274.632914 39.096457 273.841247 39.096457 C 272.539164 39.096457 271.570414 38.424582 270.92458 37.080832 L 269.73708 34.653748 C 269.419372 33.955832 268.914164 33.606873 268.211039 33.606873 L 265.51833 33.606873 L 261.414163 48.336041 L 267.51833 48.336041 C 268.398539 48.336041 269.17458 48.164166 269.841247 47.809999 C 270.51833 47.461041 271.252706 46.851666 272.044372 45.981874 L 276.195414 41.388124 C 276.940206 40.606874 277.648539 40.039165 278.315206 39.690207 C 278.992289 39.341249 279.820414 39.164165 280.789164 39.164165 C 281.809998 39.164165 282.638123 39.39854 283.283956 39.862082 C 283.940206 40.325624 284.268331 41.018332 284.268331 41.945416 C 284.268331 42.320416 284.195415 42.757916 284.044373 43.268332 L 282.028748 50.268333 C 281.518331 52.033958 280.778748 53.263125 279.809998 53.96625 C 278.836039 54.65375 277.429789 54.9975 275.586039 54.9975 L 242.461037 54.9975 C 241.487079 54.9975 240.737079 54.84125 240.205828 54.523541 C 239.674578 54.195416 239.408953 53.757916 239.408953 53.200625 C 239.408953 52.919375 239.476662 52.617291 239.612078 52.289166 C 239.79437 51.778749 240.091245 51.388124 240.507912 51.117291 C 240.929787 50.836041 241.184995 50.669374 241.273537 50.627708 C 242.018329 50.164166 242.622495 49.690208 243.086037 49.200624 C 243.549579 48.716249 243.940204 47.919374 244.257912 46.809999 L 252.799579 16.872497 C 252.981871 16.273539 253.070413 15.721455 253.070413 15.211039 C 253.070413 14.658955 252.992288 14.195414 252.836038 13.820414 C 252.674579 13.445414 252.434996 13.054789 252.106871 12.632914 C 251.690204 12.033955 251.476663 11.54958 251.476663 11.17458 C 251.476663 11.039163 251.523538 10.783955 251.612079 10.414163 C 251.804788 9.815205 252.226663 9.388122 252.867288 9.14333 C 253.513121 8.882913 254.461038 8.752705 255.716246 8.752705 Z M 327.586043 37.080832 C 328.888126 37.080832 329.872501 37.346457 330.539168 37.877707 C 331.205834 38.408957 331.539168 39.158957 331.539168 40.132915 C 331.539168 40.549582 331.471459 41.013124 331.336043 41.52354 L 329.044376 49.658958 C 328.445418 51.648541 327.596459 53.039166 326.502709 53.830833 C 325.419376 54.612083 323.810001 54.9975 321.685 54.9975 L 289.05479 54.9975 C 288.080832 54.9975 287.330832 54.84125 286.799582 54.523541 C 286.268331 54.195416 286.002706 53.757916 286.002706 53.200625 C 286.002706 52.919375 286.070415 52.617291 286.205831 52.289166 C 286.341248 51.914166 286.570415 51.601666 286.89854 51.356874 C 287.216248 51.096458 287.559998 50.851666 287.934998 50.627708 C 288.67979 50.164166 289.283957 49.690208 289.747498 49.200624 C 290.21104 48.716249 290.601665 47.919374 290.919373 46.809999 L 299.393332 16.872497 C 299.575624 16.273539 299.664166 15.695414 299.664166 15.14333 C 299.664166 14.632914 299.586041 14.20583 299.429791 13.856872 C 299.268332 13.502705 299.049582 13.096455 298.768332 12.632914 C 298.346457 12.033955 298.138124 11.54958 298.138124 11.17458 C 298.138124 11.039163 298.184999 10.783955 298.273541 10.414163 C 298.466249 9.815205 298.872499 9.388122 299.497499 9.14333 C 300.117291 8.882913 301.075624 8.752705 302.377708 8.752705 L 318.705834 8.752705 C 319.674584 8.752705 320.424584 8.903747 320.955834 9.211038 C 321.487084 9.502705 321.752709 9.929788 321.752709 10.481872 C 321.752709 10.716247 321.685 11.023538 321.549584 11.398538 C 321.40375 11.711039 321.200625 12.002705 320.940209 12.263122 C 320.690209 12.507914 320.461042 12.695414 320.2475 12.820414 C 320.044375 12.934997 319.893334 13.033955 319.804792 13.127705 C 319.070417 13.544372 318.471459 14.007914 318.007917 14.51833 C 317.544375 15.023539 317.148542 15.809997 316.820417 16.872497 L 307.8725 48.336041 L 312.174583 48.336041 C 313.237083 48.336041 314.148542 48.148541 314.90375 47.778749 C 315.674583 47.403749 316.476667 46.711041 317.315209 45.690207 L 322.096459 39.997499 C 322.976667 38.981874 323.825626 38.237082 324.638126 37.77354 C 325.450626 37.309999 326.435001 37.080832 327.586043 37.080832 Z M 366.825628 7.716247 C 372.653754 7.716247 377.211046 9.096455 380.487088 11.856872 C 383.778755 14.601664 385.41938 18.565206 385.41938 23.757914 C 385.41938 26.205831 385.054796 28.846456 384.320421 31.674581 C 382.929796 36.846457 380.773546 41.247499 377.862088 44.862082 C 374.945421 48.466249 371.466254 51.195416 367.435003 53.049583 C 363.408962 54.90375 359.033961 55.830833 354.310003 55.830833 C 348.523544 55.830833 343.987085 54.455833 340.700627 51.711041 C 337.419377 48.955833 335.78396 44.981874 335.78396 39.794374 C 335.78396 37.42979 336.174585 34.721457 336.950626 31.674581 C 338.294377 26.528748 340.414168 22.169373 343.310002 18.586039 C 346.200627 14.992289 349.648544 12.283955 353.648544 10.466247 C 357.66417 8.632913 362.054795 7.716247 366.825628 7.716247 Z M 365.57042 14.51833 C 364.179795 14.51833 362.929795 15.075622 361.82042 16.195414 C 360.716253 17.299581 359.612086 19.117289 358.518336 21.638123 C 357.429795 24.158956 356.263128 27.658956 355.007919 32.14854 C 353.164169 38.632915 352.242294 43.106874 352.242294 45.554791 C 352.242294 46.992291 352.497503 48.039166 353.007919 48.695416 C 353.513128 49.336041 354.325628 49.658958 355.429794 49.658958 C 356.820419 49.658958 358.07042 49.096458 359.179795 47.966249 C 360.283961 46.820416 361.372503 45.002707 362.435003 42.507916 C 363.50792 40.007915 364.690212 36.55479 365.992295 32.14854 C 367.78917 25.763123 368.690212 21.273539 368.690212 18.684997 C 368.690212 17.205831 368.435004 16.14333 367.924587 15.497497 C 367.41417 14.841247 366.63292 14.51833 365.57042 14.51833 Z M 421.33084 8.752705 C 426.237091 8.752705 430.018341 9.820413 432.674591 11.95583 C 435.341258 14.08083 436.674591 16.898539 436.674591 20.414164 C 436.674591 21.804789 436.466258 23.263123 436.049591 24.789164 C 434.747508 29.424581 432.185008 32.851665 428.367299 35.080832 C 424.560007 37.294374 419.731882 38.403749 413.888132 38.403749 L 406.752714 38.403749 L 404.377714 46.809999 C 404.289173 47.080833 404.242298 47.450624 404.242298 47.914166 C 404.242298 48.570416 404.388131 49.106874 404.685006 49.523541 C 404.987089 49.929791 405.445423 50.408958 406.054798 50.966249 C 406.565214 51.429791 406.908964 51.778749 407.091256 52.018333 C 407.273548 52.242291 407.362089 52.518333 407.362089 52.846458 C 407.362089 53.638125 406.987089 54.195416 406.242298 54.523541 C 405.507923 54.84125 404.424589 54.9975 402.987089 54.9975 L 385.560005 54.9975 C 384.362088 54.9975 383.466255 54.77875 382.867296 54.34125 C 382.252713 53.898541 382.044379 53.289166 382.237088 52.507916 C 382.330838 52.09125 382.502713 51.757916 382.763129 51.507916 C 383.01313 51.247499 383.393338 50.955833 383.898546 50.627708 C 384.690213 50.164166 385.320421 49.674583 385.778755 49.169374 C 386.242296 48.658958 386.612088 47.872499 386.882921 46.809999 L 395.362089 16.872497 C 395.539172 16.273539 395.632922 15.695414 395.632922 15.14333 C 395.632922 14.632914 395.549589 14.20583 395.393339 13.856872 C 395.237089 13.502705 395.01313 13.096455 394.73188 12.632914 C 394.315214 12.033955 394.10688 11.54958 394.10688 11.17458 C 394.10688 11.039163 394.148547 10.783955 394.242297 10.414163 C 394.435005 9.815205 394.841255 9.388122 395.461047 9.14333 C 396.080839 8.882913 397.04438 8.752705 398.341256 8.752705 Z M 419.51834 23.549581 C 420.028757 21.836039 420.278757 20.325622 420.278757 19.023539 C 420.278757 16.346455 419.033965 15.007914 416.533965 15.007914 L 413.414173 15.007914 L 408.481881 32.14854 L 411.533965 32.14854 C 413.476673 32.14854 415.060007 31.539165 416.278757 30.315206 C 417.513132 29.08604 418.591257 26.830831 419.51834 23.549581 Z M 476.674594 8.752705 C 478.382927 8.752705 479.711053 9.122497 480.658969 9.872497 C 481.606886 10.606872 482.080844 11.622497 482.080844 12.92458 C 482.080844 13.565205 481.992303 14.190205 481.810011 14.789164 L 479.997511 21.247497 C 479.679803 22.502706 479.205844 23.372498 478.575636 23.856873 C 477.950636 24.341248 477.065219 24.586039 475.914177 24.586039 C 474.794386 24.586039 473.924594 24.341248 473.299594 23.856873 C 472.679802 23.372498 472.205844 22.575623 471.877719 21.466247 L 470.773552 17.497497 C 470.539177 16.664164 470.252719 16.11208 469.929802 15.836039 C 469.612094 15.554789 468.987093 15.414164 468.065218 15.414164 L 460.773551 15.414164 L 457.299593 27.77354 L 460.346468 27.77354 C 460.674593 27.77354 461.117301 27.539165 461.669385 27.075623 L 464.02876 25.007914 C 464.726677 24.398539 465.330843 23.961039 465.84126 23.684998 C 466.351677 23.403748 466.971468 23.263123 467.705843 23.263123 C 468.544385 23.263123 469.226677 23.481873 469.757927 23.924581 C 470.289177 24.367289 470.554802 24.929789 470.554802 25.622498 C 470.554802 25.809998 470.507927 26.096456 470.419385 26.466248 L 467.570427 36.112082 C 467.299593 37.132915 466.825635 37.882915 466.148552 38.36729 C 465.481885 38.856874 464.752718 39.096457 463.961051 39.096457 C 462.658968 39.096457 461.690218 38.424582 461.044385 37.080832 L 459.856885 34.653748 C 459.539176 33.955832 459.033968 33.606873 458.330843 33.606873 L 455.638134 33.606873 L 451.533967 48.336041 L 457.638134 48.336041 C 458.518343 48.336041 459.294385 48.164166 459.961051 47.809999 C 460.638135 47.461041 461.37251 46.851666 462.164176 45.981874 L 466.315218 41.388124 C 467.06001 40.606874 467.768343 40.039165 468.43501 39.690207 C 469.112094 39.341249 469.940219 39.164165 470.908969 39.164165 C 471.929802 39.164165 472.757927 39.39854 473.40376 39.862082 C 474.06001 40.325624 474.388136 41.018332 474.388136 41.945416 C 474.388136 42.320416 474.315219 42.757916 474.164177 43.268332 L 472.148552 50.268333 C 471.638135 52.033958 470.898552 53.263125 469.929802 53.96625 C 468.955843 54.65375 467.549593 54.9975 465.705843 54.9975 L 432.580841 54.9975 C 431.606883 54.9975 430.856883 54.84125 430.325633 54.523541 C 429.794383 54.195416 429.528758 53.757916 429.528758 53.200625 C 429.528758 52.919375 429.596466 52.617291 429.731883 52.289166 C 429.914174 51.778749 430.211049 51.388124 430.627716 51.117291 C 431.049591 50.836041 431.304799 50.669374 431.393341 50.627708 C 432.138133 50.164166 432.742299 49.690208 433.205841 49.200624 C 433.669383 48.716249 434.060008 47.919374 434.377716 46.809999 L 442.919383 16.872497 C 443.101675 16.273539 443.190217 15.721455 443.190217 15.211039 C 443.190217 14.658955 443.112092 14.195414 442.955842 13.820414 C 442.794383 13.445414 442.5548 13.054789 442.226675 12.632914 C 441.810008 12.033955 441.596467 11.54958 441.596467 11.17458 C 441.596467 11.039163 441.643342 10.783955 441.731883 10.414163 C 441.924592 9.815205 442.346467 9.388122 442.987092 9.14333 C 443.632925 8.882913 444.580842 8.752705 445.83605 8.752705 Z M 530.966264 22.856873 C 530.231889 25.533956 528.841264 27.627706 526.794389 29.127706 C 524.75793 30.632915 522.19543 31.570415 519.096472 31.945415 C 521.325639 32.138123 522.992305 32.783957 524.096472 33.893332 C 525.205847 35.002707 525.757931 36.46104 525.757931 38.268332 C 525.757931 38.955832 525.648556 39.809999 525.419389 40.825624 L 524.658972 44.237082 C 524.554805 44.700624 524.502722 45.018332 524.502722 45.200624 C 524.502722 45.809999 524.648555 46.268332 524.929805 46.575624 C 525.211056 46.867291 525.606889 47.013124 526.117306 47.013124 C 527.086056 47.013124 527.789181 47.158958 528.216264 47.440208 C 528.658972 47.711041 528.810014 48.216249 528.674597 48.966249 C 528.492306 50.028749 527.940222 51.065208 527.013139 52.086041 C 526.086056 53.101666 524.778764 53.950625 523.080847 54.627708 C 521.398555 55.294375 519.35168 55.627708 516.94543 55.627708 C 513.893346 55.627708 511.461055 54.945416 509.653763 53.575625 C 507.846471 52.205833 506.940221 50.252708 506.940221 47.711041 C 506.940221 46.737082 507.080846 45.700624 507.367304 44.591249 L 508.466263 40.132915 C 508.658971 39.533957 508.757929 38.908957 508.757929 38.268332 C 508.757929 37.205832 508.393346 36.440207 507.669388 35.976665 C 506.961054 35.513123 505.810013 35.283957 504.226679 35.283957 L 501.601679 35.283957 L 498.398554 46.809999 C 498.304804 47.080833 498.263137 47.429791 498.263137 47.846458 C 498.263137 48.492291 498.419387 49.044374 498.737095 49.507916 C 499.06522 49.971458 499.507929 50.455833 500.075637 50.966249 C 500.481887 51.294374 500.799596 51.606874 501.023554 51.914166 C 501.263137 52.205833 501.382929 52.518333 501.382929 52.846458 C 501.382929 53.638125 501.007929 54.195416 500.263137 54.523541 C 499.528762 54.84125 498.44022 54.9975 497.007929 54.9975 L 479.580844 54.9975 C 478.382927 54.9975 477.481886 54.77875 476.882927 54.34125 C 476.273552 53.898541 476.065219 53.289166 476.257927 52.507916 C 476.346469 52.09125 476.523552 51.757916 476.783969 51.507916 C 477.028761 51.247499 477.408969 50.955833 477.919386 50.627708 C 478.711052 50.164166 479.336053 49.674583 479.799594 49.169374 C 480.263136 48.658958 480.627719 47.872499 480.903761 46.809999 L 489.37772 16.872497 C 489.560012 16.273539 489.648553 15.695414 489.648553 15.14333 C 489.648553 14.632914 489.570428 14.20583 489.414178 13.856872 C 489.25272 13.502705 489.03397 13.096455 488.75272 12.632914 C 488.330845 12.033955 488.122511 11.54958 488.122511 11.17458 C 488.122511 11.039163 488.169386 10.783955 488.257928 10.414163 C 488.450636 9.815205 488.856886 9.388122 489.481887 9.14333 C 490.101678 8.882913 491.060012 8.752705 492.362095 8.752705 L 515.622513 8.752705 C 518.82043 8.752705 521.612097 9.23708 523.997514 10.211038 C 526.382931 11.179788 528.205847 12.513122 529.471472 14.211039 C 530.747514 15.89333 531.388139 17.804789 531.388139 19.940206 C 531.388139 20.914164 531.247514 21.882914 530.966264 22.856873 Z M 513.19543 22.164164 C 513.424596 21.086039 513.533971 20.273539 513.533971 19.721456 C 513.533971 17.268331 512.19543 16.039164 509.518346 16.039164 L 506.601679 16.039164 L 503.533971 28.330831 L 506.450638 28.330831 C 508.257929 28.330831 509.679804 27.893331 510.721471 27.007915 C 511.773555 26.127706 512.596471 24.513123 513.19543 22.164164 Z M 513.19543 22.164164 " stroke="#033e8c" stroke-width="2.604221" stroke-opacity="1" stroke-miterlimit="4"/><g fill="#f2be5c" fill-opacity="1"><g transform="translate(64.79979, 337.250457)"><g><path d="M 48.296875 -45.140625 C 49.316406 -44.992188 50.015625 -44.6875 50.390625 -44.21875 C 50.773438 -43.75 50.96875 -43.128906 50.96875 -42.359375 C 50.96875 -39.859375 49.625 -38.695312 46.9375 -38.875 L 45.03125 -39.046875 C 42.882812 -39.222656 40.75 -39.363281 38.625 -39.46875 C 36.507812 -39.582031 34.289062 -39.640625 31.96875 -39.640625 L 29.515625 -39.640625 C 29.078125 -34.265625 28.625 -29.363281 28.15625 -24.9375 L 37.515625 -25.109375 C 38.859375 -25.109375 39.753906 -24.867188 40.203125 -24.390625 C 40.660156 -23.921875 40.890625 -23.285156 40.890625 -22.484375 C 40.890625 -21.253906 40.523438 -20.285156 39.796875 -19.578125 C 39.078125 -18.867188 38.046875 -18.515625 36.703125 -18.515625 L 27.390625 -18.515625 L 27.0625 -16.171875 C 26.300781 -10.179688 24.675781 -5.914062 22.1875 -3.375 C 19.695312 -0.832031 16.273438 0.4375 11.921875 0.4375 C 9.453125 0.4375 7.179688 -0.0976562 5.109375 -1.171875 C 3.046875 -2.242188 1.523438 -3.539062 0.546875 -5.0625 C 0.148438 -5.675781 -0.046875 -6.421875 -0.046875 -7.296875 C -0.046875 -8.171875 0.160156 -8.929688 0.578125 -9.578125 C 0.992188 -10.234375 1.507812 -10.5625 2.125 -10.5625 C 2.5625 -10.5625 2.988281 -10.414062 3.40625 -10.125 C 3.820312 -9.832031 4.359375 -9.269531 5.015625 -8.4375 C 6.753906 -6.15625 8.910156 -5.015625 11.484375 -5.015625 C 13.554688 -5.015625 15.289062 -5.859375 16.6875 -7.546875 C 18.082031 -9.234375 18.984375 -11.890625 19.390625 -15.515625 L 19.71875 -18.515625 L 17.09375 -18.515625 C 16.257812 -18.515625 15.539062 -18.75 14.9375 -19.21875 C 14.34375 -19.695312 14.046875 -20.367188 14.046875 -21.234375 C 14.046875 -22.359375 14.335938 -23.21875 14.921875 -23.8125 C 15.503906 -24.414062 16.359375 -24.71875 17.484375 -24.71875 C 18.492188 -24.71875 19.488281 -24.738281 20.46875 -24.78125 C 20.90625 -28.769531 21.378906 -33.613281 21.890625 -39.3125 C 17.972656 -38.945312 15.210938 -38.3125 13.609375 -37.40625 C 12.015625 -36.5 11.21875 -35.15625 11.21875 -33.375 C 11.21875 -32.144531 11.582031 -30.96875 12.3125 -29.84375 C 12.53125 -29.507812 12.640625 -29.179688 12.640625 -28.859375 C 12.640625 -28.203125 12.273438 -27.628906 11.546875 -27.140625 C 10.816406 -26.648438 10 -26.40625 9.09375 -26.40625 C 8.113281 -26.40625 7.28125 -26.695312 6.59375 -27.28125 C 6.15625 -27.644531 5.734375 -28.390625 5.328125 -29.515625 C 4.929688 -30.640625 4.734375 -31.890625 4.734375 -33.265625 C 4.734375 -37.765625 7.046875 -41.03125 11.671875 -43.0625 C 16.304688 -45.101562 23.070312 -46.125 31.96875 -46.125 C 38.132812 -46.125 43.578125 -45.796875 48.296875 -45.140625 Z M 48.296875 -45.140625 "/></g></g></g><g fill="#f2be5c" fill-opacity="1"><g transform="translate(104.11783, 337.250457)"><g><path d="M 6.484375 0.265625 C 5.097656 0.265625 4.125 -0.457031 3.5625 -1.90625 C 3 -3.351562 2.71875 -5.675781 2.71875 -8.875 C 2.71875 -13.59375 3.390625 -18.078125 4.734375 -22.328125 C 5.066406 -23.378906 5.601562 -24.148438 6.34375 -24.640625 C 7.082031 -25.128906 8.125 -25.375 9.46875 -25.375 C 10.195312 -25.375 10.707031 -25.28125 11 -25.09375 C 11.289062 -24.914062 11.4375 -24.570312 11.4375 -24.0625 C 11.4375 -23.488281 11.164062 -22.179688 10.625 -20.140625 C 10.257812 -18.691406 9.96875 -17.421875 9.75 -16.328125 C 9.53125 -15.242188 9.347656 -13.90625 9.203125 -12.3125 C 10.398438 -15.425781 11.742188 -17.960938 13.234375 -19.921875 C 14.722656 -21.890625 16.179688 -23.289062 17.609375 -24.125 C 19.046875 -24.957031 20.363281 -25.375 21.5625 -25.375 C 23.925781 -25.375 25.109375 -24.191406 25.109375 -21.828125 C 25.109375 -21.359375 24.941406 -20.21875 24.609375 -18.40625 C 24.316406 -16.957031 24.171875 -16.050781 24.171875 -15.6875 C 24.171875 -14.414062 24.625 -13.78125 25.53125 -13.78125 C 26.550781 -13.78125 27.859375 -14.578125 29.453125 -16.171875 C 29.929688 -16.640625 30.421875 -16.875 30.921875 -16.875 C 31.398438 -16.875 31.773438 -16.664062 32.046875 -16.25 C 32.316406 -15.832031 32.453125 -15.28125 32.453125 -14.59375 C 32.453125 -13.25 32.085938 -12.195312 31.359375 -11.4375 C 30.347656 -10.382812 29.160156 -9.484375 27.796875 -8.734375 C 26.429688 -7.992188 24.988281 -7.625 23.46875 -7.625 C 21.539062 -7.625 20.078125 -8.113281 19.078125 -9.09375 C 18.085938 -10.070312 17.59375 -11.394531 17.59375 -13.0625 C 17.59375 -13.613281 17.644531 -14.160156 17.75 -14.703125 C 17.820312 -15.429688 17.859375 -15.921875 17.859375 -16.171875 C 17.859375 -16.753906 17.660156 -17.046875 17.265625 -17.046875 C 16.710938 -17.046875 15.992188 -16.4375 15.109375 -15.21875 C 14.222656 -14 13.34375 -12.390625 12.46875 -10.390625 C 11.59375 -8.398438 10.882812 -6.296875 10.34375 -4.078125 C 9.945312 -2.378906 9.484375 -1.226562 8.953125 -0.625 C 8.429688 -0.03125 7.609375 0.265625 6.484375 0.265625 Z M 6.484375 0.265625 "/></g></g></g><g fill="#f2be5c" fill-opacity="1"><g transform="translate(129.44041, 337.250457)"><g><path d="M 30.390625 -16.71875 C 30.859375 -16.71875 31.21875 -16.476562 31.46875 -16 C 31.726562 -15.53125 31.859375 -14.9375 31.859375 -14.21875 C 31.859375 -12.46875 31.332031 -11.429688 30.28125 -11.109375 C 28.101562 -10.347656 25.707031 -9.910156 23.09375 -9.796875 C 22.394531 -6.753906 21.03125 -4.316406 19 -2.484375 C 16.96875 -0.648438 14.664062 0.265625 12.09375 0.265625 C 9.914062 0.265625 8.050781 -0.257812 6.5 -1.3125 C 4.957031 -2.363281 3.785156 -3.757812 2.984375 -5.5 C 2.191406 -7.238281 1.796875 -9.125 1.796875 -11.15625 C 1.796875 -13.914062 2.320312 -16.375 3.375 -18.53125 C 4.425781 -20.695312 5.878906 -22.382812 7.734375 -23.59375 C 9.585938 -24.8125 11.640625 -25.421875 13.890625 -25.421875 C 16.648438 -25.421875 18.875 -24.46875 20.5625 -22.5625 C 22.25 -20.664062 23.238281 -18.316406 23.53125 -15.515625 C 25.226562 -15.628906 27.257812 -15.992188 29.625 -16.609375 C 29.914062 -16.679688 30.171875 -16.71875 30.390625 -16.71875 Z M 12.53125 -5.5 C 13.6875 -5.5 14.691406 -5.96875 15.546875 -6.90625 C 16.398438 -7.851562 16.972656 -9.21875 17.265625 -11 C 16.140625 -11.757812 15.273438 -12.753906 14.671875 -13.984375 C 14.078125 -15.222656 13.78125 -16.535156 13.78125 -17.921875 C 13.78125 -18.492188 13.832031 -19.070312 13.9375 -19.65625 L 13.671875 -19.65625 C 12.210938 -19.65625 11.003906 -18.957031 10.046875 -17.5625 C 9.085938 -16.164062 8.609375 -14.195312 8.609375 -11.65625 C 8.609375 -9.65625 8.992188 -8.128906 9.765625 -7.078125 C 10.546875 -6.023438 11.46875 -5.5 12.53125 -5.5 Z M 12.53125 -5.5 "/></g></g></g><g fill="#f2be5c" fill-opacity="1"><g transform="translate(154.545164, 337.250457)"><g><path d="M 6.484375 0.265625 C 5.097656 0.265625 4.125 -0.457031 3.5625 -1.90625 C 3 -3.351562 2.71875 -5.675781 2.71875 -8.875 C 2.71875 -13.59375 3.390625 -18.078125 4.734375 -22.328125 C 5.066406 -23.378906 5.601562 -24.148438 6.34375 -24.640625 C 7.082031 -25.128906 8.125 -25.375 9.46875 -25.375 C 10.195312 -25.375 10.707031 -25.28125 11 -25.09375 C 11.289062 -24.914062 11.4375 -24.570312 11.4375 -24.0625 C 11.4375 -23.488281 11.164062 -22.179688 10.625 -20.140625 C 10.257812 -18.691406 9.96875 -17.421875 9.75 -16.328125 C 9.53125 -15.242188 9.347656 -13.90625 9.203125 -12.3125 C 10.398438 -15.425781 11.742188 -17.960938 13.234375 -19.921875 C 14.722656 -21.890625 16.179688 -23.289062 17.609375 -24.125 C 19.046875 -24.957031 20.363281 -25.375 21.5625 -25.375 C 23.925781 -25.375 25.109375 -24.191406 25.109375 -21.828125 C 25.109375 -20.421875 24.707031 -17.863281 23.90625 -14.15625 C 23.21875 -11 22.875 -8.910156 22.875 -7.890625 C 22.875 -6.441406 23.398438 -5.71875 24.453125 -5.71875 C 25.171875 -5.71875 26.03125 -6.160156 27.03125 -7.046875 C 28.03125 -7.941406 29.363281 -9.382812 31.03125 -11.375 C 31.46875 -11.882812 31.960938 -12.140625 32.515625 -12.140625 C 32.984375 -12.140625 33.351562 -11.921875 33.625 -11.484375 C 33.894531 -11.054688 34.03125 -10.457031 34.03125 -9.6875 C 34.03125 -8.238281 33.6875 -7.113281 33 -6.3125 C 31.4375 -4.394531 29.753906 -2.816406 27.953125 -1.578125 C 26.160156 -0.347656 24.117188 0.265625 21.828125 0.265625 C 19.984375 0.265625 18.585938 -0.265625 17.640625 -1.328125 C 16.703125 -2.398438 16.234375 -3.953125 16.234375 -5.984375 C 16.234375 -7.003906 16.484375 -8.820312 16.984375 -11.4375 C 17.460938 -13.71875 17.703125 -15.296875 17.703125 -16.171875 C 17.703125 -16.753906 17.5 -17.046875 17.09375 -17.046875 C 16.625 -17.046875 15.960938 -16.4375 15.109375 -15.21875 C 14.253906 -14 13.378906 -12.390625 12.484375 -10.390625 C 11.597656 -8.398438 10.882812 -6.296875 10.34375 -4.078125 C 9.945312 -2.378906 9.484375 -1.226562 8.953125 -0.625 C 8.429688 -0.03125 7.609375 0.265625 6.484375 0.265625 Z M 6.484375 0.265625 "/></g></g></g><g fill="#f2be5c" fill-opacity="1"><g transform="translate(182.100487, 337.250457)"><g><path d="M 26.90625 -12.140625 C 27.375 -12.140625 27.742188 -11.921875 28.015625 -11.484375 C 28.285156 -11.054688 28.421875 -10.457031 28.421875 -9.6875 C 28.421875 -8.238281 28.078125 -7.113281 27.390625 -6.3125 C 25.828125 -4.394531 24.117188 -2.816406 22.265625 -1.578125 C 20.421875 -0.347656 18.300781 0.265625 15.90625 0.265625 C 8.5 0.265625 4.796875 -4.941406 4.796875 -15.359375 C 4.796875 -16.953125 4.847656 -18.566406 4.953125 -20.203125 L 2.828125 -20.203125 C 1.742188 -20.203125 1.007812 -20.398438 0.625 -20.796875 C 0.238281 -21.203125 0.046875 -21.835938 0.046875 -22.703125 C 0.046875 -24.734375 0.863281 -25.75 2.5 -25.75 L 5.609375 -25.75 C 6.222656 -29.75 7.164062 -33.398438 8.4375 -36.703125 C 9.707031 -40.003906 11.238281 -42.632812 13.03125 -44.59375 C 14.832031 -46.550781 16.769531 -47.53125 18.84375 -47.53125 C 20.363281 -47.53125 21.554688 -46.859375 22.421875 -45.515625 C 23.296875 -44.179688 23.734375 -42.492188 23.734375 -40.453125 C 23.734375 -34.828125 21.375 -29.925781 16.65625 -25.75 L 22.765625 -25.75 C 23.335938 -25.75 23.75 -25.625 24 -25.375 C 24.257812 -25.125 24.390625 -24.648438 24.390625 -23.953125 C 24.390625 -21.453125 22.335938 -20.203125 18.234375 -20.203125 L 11.59375 -20.203125 C 11.519531 -18.390625 11.484375 -16.972656 11.484375 -15.953125 C 11.484375 -12.179688 11.925781 -9.53125 12.8125 -8 C 13.707031 -6.476562 15.117188 -5.71875 17.046875 -5.71875 C 18.609375 -5.71875 19.988281 -6.1875 21.1875 -7.125 C 22.382812 -8.070312 23.796875 -9.488281 25.421875 -11.375 C 25.859375 -11.882812 26.351562 -12.140625 26.90625 -12.140625 Z M 17.375 -42.3125 C 16.820312 -42.3125 16.207031 -41.628906 15.53125 -40.265625 C 14.863281 -38.898438 14.226562 -37.007812 13.625 -34.59375 C 13.03125 -32.1875 12.535156 -29.515625 12.140625 -26.578125 C 14.285156 -28.421875 15.890625 -30.492188 16.953125 -32.796875 C 18.023438 -35.109375 18.5625 -37.207031 18.5625 -39.09375 C 18.5625 -41.238281 18.164062 -42.3125 17.375 -42.3125 Z M 17.375 -42.3125 "/></g></g></g><g fill="#f2be5c" fill-opacity="1"><g transform="translate(204.046729, 337.250457)"><g><path d="M 5.984375 -13.390625 C 5.117188 -13.316406 4.421875 -13.570312 3.890625 -14.15625 C 3.367188 -14.738281 3.109375 -15.554688 3.109375 -16.609375 C 3.109375 -17.585938 3.351562 -18.3125 3.84375 -18.78125 C 4.332031 -19.257812 5.046875 -19.535156 5.984375 -19.609375 L 17.15625 -20.6875 C 18.0625 -20.757812 18.757812 -20.53125 19.25 -20 C 19.738281 -19.476562 19.984375 -18.710938 19.984375 -17.703125 C 19.984375 -15.734375 19.039062 -14.660156 17.15625 -14.484375 Z M 5.984375 -13.390625 "/></g></g></g><g fill="#f2be5c" fill-opacity="1"><g transform="translate(226.537538, 337.250457)"><g><path d="M 41.109375 -9.90625 C 41.648438 -10.125 42.101562 -10.234375 42.46875 -10.234375 C 43.050781 -10.234375 43.488281 -10.015625 43.78125 -9.578125 C 44.070312 -9.148438 44.21875 -8.585938 44.21875 -7.890625 C 44.21875 -6.804688 43.953125 -5.878906 43.421875 -5.109375 C 42.898438 -4.347656 42.003906 -3.660156 40.734375 -3.046875 C 38.585938 -2.035156 35.804688 -1.226562 32.390625 -0.625 C 28.984375 -0.03125 25.628906 0.265625 22.328125 0.265625 C 17.753906 0.265625 13.921875 -0.25 10.828125 -1.28125 C 7.742188 -2.3125 5.445312 -3.734375 3.9375 -5.546875 C 2.4375 -7.367188 1.6875 -9.421875 1.6875 -11.703125 C 1.6875 -14.828125 2.691406 -17.488281 4.703125 -19.6875 C 6.722656 -21.882812 9.691406 -23.472656 13.609375 -24.453125 C 11.472656 -25.066406 9.832031 -26.15625 8.6875 -27.71875 C 7.539062 -29.28125 6.96875 -31.019531 6.96875 -32.9375 C 6.96875 -35.550781 7.789062 -37.863281 9.4375 -39.875 C 11.09375 -41.894531 13.316406 -43.445312 16.109375 -44.53125 C 18.910156 -45.625 21.984375 -46.171875 25.328125 -46.171875 C 29.828125 -46.171875 33.203125 -45.195312 35.453125 -43.25 C 37.703125 -41.3125 38.828125 -38.800781 38.828125 -35.71875 C 38.828125 -33.582031 38.4375 -31.847656 37.65625 -30.515625 C 36.875 -29.191406 35.757812 -28.53125 34.3125 -28.53125 C 33.289062 -28.53125 32.488281 -28.753906 31.90625 -29.203125 C 31.320312 -29.660156 31.03125 -30.34375 31.03125 -31.25 C 31.03125 -31.875 31.125 -32.546875 31.3125 -33.265625 C 31.488281 -34.460938 31.578125 -35.28125 31.578125 -35.71875 C 31.578125 -37.03125 31.085938 -38.09375 30.109375 -38.90625 C 29.128906 -39.71875 27.5 -40.125 25.21875 -40.125 C 22.125 -40.125 19.648438 -39.472656 17.796875 -38.171875 C 15.953125 -36.867188 15.03125 -35.109375 15.03125 -32.890625 C 15.03125 -31.179688 15.726562 -29.773438 17.125 -28.671875 C 18.519531 -27.566406 20.796875 -26.957031 23.953125 -26.84375 C 24.753906 -26.8125 25.316406 -26.628906 25.640625 -26.296875 C 25.972656 -25.972656 26.140625 -25.429688 26.140625 -24.671875 C 26.140625 -22.273438 25.050781 -21.054688 22.875 -21.015625 C 19.851562 -20.941406 17.351562 -20.523438 15.375 -19.765625 C 13.40625 -19.003906 11.972656 -18.03125 11.078125 -16.84375 C 10.191406 -15.664062 9.75 -14.40625 9.75 -13.0625 C 9.75 -10.8125 10.800781 -9.113281 12.90625 -7.96875 C 15.007812 -6.832031 18.347656 -6.265625 22.921875 -6.265625 C 25.929688 -6.265625 29.113281 -6.617188 32.46875 -7.328125 C 35.832031 -8.035156 38.710938 -8.894531 41.109375 -9.90625 Z M 41.109375 -9.90625 "/></g></g></g><g fill="#f2be5c" fill-opacity="1"><g transform="translate(264.439692, 337.250457)"><g><path d="M 6.484375 0.265625 C 5.097656 0.265625 4.125 -0.457031 3.5625 -1.90625 C 3 -3.351562 2.71875 -5.675781 2.71875 -8.875 C 2.71875 -13.59375 3.390625 -18.078125 4.734375 -22.328125 C 5.066406 -23.378906 5.601562 -24.148438 6.34375 -24.640625 C 7.082031 -25.128906 8.125 -25.375 9.46875 -25.375 C 10.195312 -25.375 10.707031 -25.28125 11 -25.09375 C 11.289062 -24.914062 11.4375 -24.570312 11.4375 -24.0625 C 11.4375 -23.488281 11.164062 -22.179688 10.625 -20.140625 C 10.257812 -18.691406 9.96875 -17.421875 9.75 -16.328125 C 9.53125 -15.242188 9.347656 -13.90625 9.203125 -12.3125 C 10.398438 -15.425781 11.742188 -17.960938 13.234375 -19.921875 C 14.722656 -21.890625 16.179688 -23.289062 17.609375 -24.125 C 19.046875 -24.957031 20.363281 -25.375 21.5625 -25.375 C 23.925781 -25.375 25.109375 -24.191406 25.109375 -21.828125 C 25.109375 -20.421875 24.707031 -17.863281 23.90625 -14.15625 C 23.21875 -11 22.875 -8.910156 22.875 -7.890625 C 22.875 -6.441406 23.398438 -5.71875 24.453125 -5.71875 C 25.171875 -5.71875 26.03125 -6.160156 27.03125 -7.046875 C 28.03125 -7.941406 29.363281 -9.382812 31.03125 -11.375 C 31.46875 -11.882812 31.960938 -12.140625 32.515625 -12.140625 C 32.984375 -12.140625 33.351562 -11.921875 33.625 -11.484375 C 33.894531 -11.054688 34.03125 -10.457031 34.03125 -9.6875 C 34.03125 -8.238281 33.6875 -7.113281 33 -6.3125 C 31.4375 -4.394531 29.753906 -2.816406 27.953125 -1.578125 C 26.160156 -0.347656 24.117188 0.265625 21.828125 0.265625 C 19.984375 0.265625 18.585938 -0.265625 17.640625 -1.328125 C 16.703125 -2.398438 16.234375 -3.953125 16.234375 -5.984375 C 16.234375 -7.003906 16.484375 -8.820312 16.984375 -11.4375 C 17.460938 -13.71875 17.703125 -15.296875 17.703125 -16.171875 C 17.703125 -16.753906 17.5 -17.046875 17.09375 -17.046875 C 16.625 -17.046875 15.960938 -16.4375 15.109375 -15.21875 C 14.253906 -14 13.378906 -12.390625 12.484375 -10.390625 C 11.597656 -8.398438 10.882812 -6.296875 10.34375 -4.078125 C 9.945312 -2.378906 9.484375 -1.226562 8.953125 -0.625 C 8.429688 -0.03125 7.609375 0.265625 6.484375 0.265625 Z M 6.484375 0.265625 "/></g></g></g><g fill="#f2be5c" fill-opacity="1"><g transform="translate(291.995026, 337.250457)"><g><path d="M 33.546875 -12.140625 C 34.015625 -12.140625 34.382812 -11.921875 34.65625 -11.484375 C 34.925781 -11.054688 35.0625 -10.457031 35.0625 -9.6875 C 35.0625 -8.238281 34.71875 -7.113281 34.03125 -6.3125 C 32.539062 -4.5 30.90625 -2.945312 29.125 -1.65625 C 27.351562 -0.375 25.59375 0.265625 23.84375 0.265625 C 21.09375 0.265625 18.988281 -1.347656 17.53125 -4.578125 C 16.007812 -2.648438 14.675781 -1.359375 13.53125 -0.703125 C 12.382812 -0.0546875 11.050781 0.265625 9.53125 0.265625 C 7.3125 0.265625 5.484375 -0.554688 4.046875 -2.203125 C 2.617188 -3.859375 1.90625 -6.007812 1.90625 -8.65625 C 1.90625 -11.5625 2.519531 -14.253906 3.75 -16.734375 C 4.988281 -19.222656 6.6875 -21.257812 8.84375 -22.84375 C 11.007812 -24.425781 13.4375 -25.359375 16.125 -25.640625 C 16.8125 -32.691406 18.125 -38.710938 20.0625 -43.703125 C 22.007812 -48.691406 24.5625 -51.1875 27.71875 -51.1875 C 29.28125 -51.1875 30.578125 -50.476562 31.609375 -49.0625 C 32.640625 -47.644531 33.15625 -45.503906 33.15625 -42.640625 C 33.15625 -38.566406 32.15625 -33.804688 30.15625 -28.359375 C 28.164062 -22.921875 25.5 -17.332031 22.15625 -11.59375 C 22.300781 -9.488281 22.617188 -7.984375 23.109375 -7.078125 C 23.597656 -6.171875 24.226562 -5.71875 25 -5.71875 C 25.976562 -5.71875 26.972656 -6.148438 27.984375 -7.015625 C 29.003906 -7.890625 30.367188 -9.34375 32.078125 -11.375 C 32.503906 -11.882812 32.992188 -12.140625 33.546875 -12.140625 Z M 27.125 -45.84375 C 26.425781 -45.84375 25.734375 -44.617188 25.046875 -42.171875 C 24.359375 -39.722656 23.769531 -36.519531 23.28125 -32.5625 C 22.789062 -28.601562 22.4375 -24.460938 22.21875 -20.140625 C 26.28125 -29.003906 28.3125 -36.125 28.3125 -41.5 C 28.3125 -42.875 28.191406 -43.941406 27.953125 -44.703125 C 27.722656 -45.460938 27.445312 -45.84375 27.125 -45.84375 Z M 11.4375 -5.234375 C 12.125 -5.234375 12.8125 -5.515625 13.5 -6.078125 C 14.1875 -6.640625 15.0625 -7.679688 16.125 -9.203125 C 15.757812 -11.160156 15.578125 -13.359375 15.578125 -15.796875 C 15.578125 -16.660156 15.613281 -18.070312 15.6875 -20.03125 C 13.6875 -19.414062 12.023438 -18.082031 10.703125 -16.03125 C 9.378906 -13.976562 8.71875 -11.703125 8.71875 -9.203125 C 8.71875 -6.554688 9.625 -5.234375 11.4375 -5.234375 Z M 11.4375 -5.234375 "/></g></g></g></svg>