<svg xmlns="http://www.w3.org/2000/svg" xmlns:xlink="http://www.w3.org/1999/xlink" width="500" zoomAndPan="magnify" viewBox="0 0 375 374.999991" height="500" preserveAspectRatio="xMidYMid meet" version="1.0"><defs><clipPath id="5d0eda45dd"><path d="M 7.96875 7.96875 L 364.21875 7.96875 L 364.21875 364.21875 L 7.96875 364.21875 Z M 7.96875 7.96875 " clip-rule="nonzero"/></clipPath></defs><rect x="-37.5" width="450" fill="#ffffff" y="-37.499999" height="449.999989" fill-opacity="1"/><rect x="-37.5" width="450" fill="#ffffff" y="-37.499999" height="449.999989" fill-opacity="1"/><rect x="-37.5" width="450" fill="#f2f2f2" y="-37.499999" height="449.999989" fill-opacity="1"/><rect x="-37.5" width="450" fill="#f2f2f2" y="-37.499999" height="449.999989" fill-opacity="1"/><rect x="-37.5" width="450" fill="#f2f2f2" y="-37.499999" height="449.999989" fill-opacity="1"/><rect x="-37.5" width="450" fill="#f2f2f2" y="-37.499999" height="449.999989" fill-opacity="1"/><g clip-path="url(#5d0eda45dd)"><path fill="#007acc" d="M 7.96875 364.21875 L 364.21875 364.21875 L 364.21875 7.96875 L 7.96875 7.96875 Z M 7.96875 364.21875 " fill-opacity="1" fill-rule="nonzero"/></g><path fill="#f2f2f2" d="M 86.734375 187.261719 L 86.621094 201.859375 L 132.992188 201.859375 L 132.992188 333.617188 L 165.789062 333.617188 L 165.789062 201.859375 L 212.160156 201.859375 L 212.160156 187.554688 C 212.160156 179.636719 211.988281 173.011719 211.765625 172.847656 C 211.59375 172.625 183.375 172.511719 149.160156 172.566406 L 86.902344 172.734375 Z M 86.734375 187.261719 " fill-opacity="1" fill-rule="nonzero"/><path fill="#f2f2f2" d="M 295.433594 172.332031 C 304.476562 174.585938 311.378906 178.609375 317.710938 185.160156 C 320.980469 188.667969 325.851562 195.054688 326.242188 196.585938 C 326.355469 197.046875 310.867188 207.441406 301.472656 213.273438 C 301.136719 213.496094 299.789062 212.019531 298.257812 209.765625 C 293.679688 203.085938 288.863281 200.207031 281.515625 199.703125 C 270.71875 198.964844 263.757812 204.617188 263.816406 214.066406 C 263.816406 216.835938 264.21875 218.476562 265.347656 220.730469 C 267.726562 225.65625 272.136719 228.59375 285.984375 234.589844 C 311.492188 245.558594 322.402344 252.792969 329.191406 263.089844 C 336.761719 274.574219 338.460938 292.886719 333.3125 306.507812 C 327.660156 321.332031 313.632812 331.390625 293.902344 334.730469 C 287.792969 335.800781 273.320312 335.636719 266.75 334.453125 C 252.445312 331.90625 238.878906 324.835938 230.515625 315.570312 C 227.230469 311.949219 220.84375 302.5 221.230469 301.820312 C 221.414062 301.597656 222.875 300.691406 224.515625 299.734375 C 226.101562 298.828125 232.101562 295.375 237.75 292.09375 L 247.980469 286.164062 L 250.136719 289.324219 C 253.128906 293.902344 259.695312 300.179688 263.648438 302.277344 C 275.019531 308.261719 290.617188 307.414062 298.3125 300.527344 C 301.597656 297.519531 302.945312 294.417969 302.945312 289.839844 C 302.945312 285.707031 302.445312 283.894531 300.289062 280.792969 C 297.519531 276.828125 291.871094 273.488281 275.8125 266.542969 C 257.429688 258.625 249.507812 253.699219 242.273438 245.890625 C 238.085938 241.367188 234.132812 234.132812 232.492188 228.078125 C 231.125 223.054688 230.792969 210.449219 231.863281 205.355469 C 235.664062 187.597656 249.0625 175.210938 268.394531 171.539062 C 274.667969 170.355469 289.269531 170.800781 295.433594 172.332031 Z M 295.433594 172.332031 " fill-opacity="1" fill-rule="nonzero"/></svg>