<svg xmlns="http://www.w3.org/2000/svg" xmlns:xlink="http://www.w3.org/1999/xlink" width="500" zoomAndPan="magnify" viewBox="0 0 375 374.999991" height="500" preserveAspectRatio="xMidYMid meet" version="1.0"><rect x="-37.5" width="450" fill="#ffffff" y="-37.499999" height="449.999989" fill-opacity="1"/><rect x="-37.5" width="450" fill="#ffffff" y="-37.499999" height="449.999989" fill-opacity="1"/><rect x="-37.5" width="450" fill="#1d1d1d" y="-37.499999" height="449.999989" fill-opacity="1"/><path fill="#1d1d1d" d="M 410.414062 3.757812 C 410.414062 -17.695312 393.023438 -35.085938 371.566406 -35.085938 L 3.75 -35.085938 C -17.695312 -35.085938 -35.085938 -17.695312 -35.085938 3.757812 L -35.085938 371.566406 C -35.085938 393.023438 -17.695312 410.414062 3.75 410.414062 L 371.566406 410.414062 C 393.023438 410.414062 410.414062 393.023438 410.414062 371.566406 Z M 410.414062 3.757812 " fill-opacity="1" fill-rule="evenodd"/><path fill="#17cab1" d="M 56.199219 322.105469 L 69.214844 276.523438 C 50.601562 251.761719 39.566406 220.988281 39.566406 187.664062 C 39.566406 105.929688 105.929688 39.570312 187.664062 39.570312 C 269.394531 39.570312 335.75 105.929688 335.75 187.664062 C 335.75 269.398438 269.394531 335.753906 187.664062 335.753906 C 155.824219 335.753906 128.164062 322.726562 102.160156 308.5625 Z M 42.980469 286.125 L 19.574219 358.738281 L 93.082031 334.917969 C 120.359375 352.484375 152.828125 362.679688 187.664062 362.679688 C 284.257812 362.679688 362.679688 284.257812 362.679688 187.664062 C 362.679688 91.066406 284.257812 12.644531 187.664062 12.644531 C 91.070312 12.644531 12.644531 91.066406 12.644531 187.664062 C 12.644531 224.15625 23.839844 258.058594 42.980469 286.125 Z M 42.980469 286.125 " fill-opacity="1" fill-rule="evenodd"/><path fill="#17cab1" d="M 122.644531 112.039062 C 107.289062 127.398438 104.316406 151.21875 115.421875 169.882812 C 123.503906 183.292969 136.160156 200.179688 156.097656 220.117188 C 175.546875 239.566406 191.980469 251.976562 205.109375 259.890625 C 223.773438 271.105469 247.679688 268.167969 263.070312 252.773438 C 264.058594 251.84375 265.003906 250.902344 265.917969 249.984375 C 272.179688 243.722656 272.179688 233.574219 265.917969 227.3125 C 261.527344 222.925781 256.523438 217.917969 252.132812 213.53125 C 249.132812 210.523438 245.054688 208.835938 240.796875 208.835938 C 236.546875 208.835938 232.46875 210.523438 229.460938 213.53125 C 227.320312 215.671875 225.738281 217.257812 225.738281 217.257812 C 225.738281 217.257812 206.574219 218.800781 185.03125 197.257812 C 163.488281 175.714844 158.039062 149.558594 158.039062 149.558594 C 158.039062 149.558594 159.621094 147.972656 161.761719 145.832031 C 164.765625 142.824219 166.460938 138.746094 166.460938 134.492188 C 166.460938 130.242188 164.765625 126.164062 161.761719 123.15625 C 157.375 118.773438 152.363281 113.761719 147.980469 109.375 C 141.71875 103.117188 131.570312 103.117188 125.308594 109.375 C 124.441406 110.246094 123.550781 111.136719 122.644531 112.039062 Z M 122.644531 112.039062 " fill-opacity="1" fill-rule="evenodd"/></svg>